<?xml version="1.0" standalone="no"?>
<!DOCTYPE svg PUBLIC "-//W3C//DTD SVG 1.1//EN" "http://www.w3.org/Graphics/SVG/1.1/DTD/svg11.dtd" >
<svg xmlns="http://www.w3.org/2000/svg">
<metadata>Generated by IcoMoon</metadata>
<defs>
<font id="icomoon" horiz-adv-x="1024">
<font-face units-per-em="1024" ascent="1024" descent="0" />
<missing-glyph horiz-adv-x="1024" />
<glyph unicode="&#x20;" horiz-adv-x="0" d="" />
<glyph unicode="&#xe900;" glyph-name="arrow-left" d="M508.927 170.666c-34.176 0-66.347 13.312-90.496 37.504l-303.829 303.829 303.829 303.829c48.341 48.384 132.651 48.384 180.992 0 24.149-24.064 37.504-56.192 37.504-90.411 0-31.829-11.52-61.909-32.597-85.419h206.336c70.571 0 128-57.429 128-128s-57.429-128-128-128h-206.336c21.035-23.424 32.597-53.419 32.597-85.248 0.085-34.219-13.312-66.432-37.504-90.624-24.192-24.149-56.32-37.461-90.496-37.461zM235.263 511.999l243.499-243.499c16.171-16.128 44.16-16.128 60.331 0 8.064 8.064 12.501 18.816 12.501 30.208s-4.437 22.059-12.416 30.080l-140.587 140.544h412.075c23.552 0 42.667 19.157 42.667 42.667s-19.115 42.667-42.667 42.667h-412.075l140.501 140.501c8.064 8.064 12.501 18.816 12.501 30.208s-4.437 22.059-12.459 30.080c-16.256 16.213-44.203 16.171-60.373 0.043l-243.499-243.499z" />
<glyph unicode="&#xe901;" glyph-name="arrow-right" d="M508.374 165.227c-34.176 0-66.347 13.312-90.496 37.504s-37.547 56.363-37.504 90.581c0 31.829 11.563 42.581 32.597 85.248h-206.336c-70.571 0-128 57.472-128 128 0 70.571 57.429 128 128 128h206.336c-21.077 42.667-32.597 53.547-32.597 85.376 0.043 34.219 13.312 66.304 37.547 90.496 48.299 48.299 132.608 48.341 180.949-0.043l303.829-303.829-303.829-303.829c-24.149-24.192-56.32-37.504-90.496-37.504zM206.635 549.227c-23.552 0-42.667-19.157-42.667-42.667s19.115-42.667 42.667-42.667h412.075l-140.501-140.501c-8.064-8.064-12.501-18.731-12.501-30.123 0-11.477 4.437-22.144 12.501-30.208 16.171-16.128 44.16-16.128 60.331 0l243.499 243.499-243.499 243.499c-16.171 16.128-44.16 16.128-60.331 0-8.064-8.064-12.501-18.731-12.501-30.123 0-11.435 4.437-22.144 12.501-30.208l140.501-140.501h-412.075z" />
<glyph unicode="&#xe902;" glyph-name="arrow-up" d="M512 85.334c-70.571 0-128 57.429-128 128v203.264c-48.768-43.691-129.067-41.771-175.829 4.907-49.92 49.877-49.92 131.115 0 180.992l303.829 303.829 303.829-303.829c49.92-49.877 49.92-131.115 0-180.992-46.677-46.72-127.104-48.64-175.829-4.907v-203.264c0-70.571-57.429-128-128-128zM469.333 622.337v-409.003c0-23.509 19.115-42.667 42.667-42.667s42.667 19.157 42.667 42.667v409.003l140.501-140.501c16.171-16.128 44.16-16.128 60.331 0 16.683 16.683 16.683 43.648 0 60.331l-243.499 243.499-243.499-243.499c-16.683-16.683-16.683-43.648 0-60.331 16.171-16.128 44.16-16.128 60.331 0l140.501 140.501z" />
<glyph unicode="&#xe903;" glyph-name="arrow-down" d="M512 72.022l-303.829 303.829c-49.92 49.92-49.92 131.115 0 180.992 46.677 46.677 127.061 48.555 175.829 4.907v206.251c0 70.571 57.429 128 128 128s128-57.429 128-128v-206.251c48.768 43.648 129.152 41.771 175.829-4.907 49.92-49.877 49.92-131.072 0-180.992l-303.829-303.829zM298.667 509.014c-11.435 0-22.101-4.437-30.165-12.501-16.683-16.64-16.683-43.648 0-60.331l243.499-243.499 243.499 243.499c16.683 16.683 16.683 43.691 0 60.331-16.171 16.171-44.16 16.171-60.331 0l-140.501-140.501v411.989c0 23.509-19.115 42.667-42.667 42.667s-42.667-19.157-42.667-42.667v-411.989l-140.501 140.501c-8.064 8.064-18.731 12.501-30.165 12.501z" />
<glyph unicode="&#xe904;" glyph-name="chevron-left" d="M602.518 170.665c-34.219 0-66.347 13.312-90.539 37.504l-303.829 303.829 303.872 303.829c48.341 48.341 132.693 48.341 181.035 0 24.149-24.149 37.461-56.32 37.461-90.496s-13.312-66.347-37.504-90.539l-122.795-122.795 122.795-122.837c24.192-24.149 37.504-56.32 37.504-90.496s-13.312-66.347-37.504-90.539c-24.149-24.149-56.277-37.461-90.496-37.461zM328.811 511.998l243.541-243.499c16.128-16.128 44.245-16.085 60.331 0 8.064 8.064 12.501 18.731 12.501 30.165s-4.437 22.101-12.501 30.165l-183.125 183.168 183.125 183.168c8.064 8.064 12.501 18.773 12.501 30.165s-4.437 22.101-12.501 30.165c-16.128 16.171-44.245 16.128-60.331 0.043l-243.541-243.541z" />
<glyph unicode="&#xe905;" glyph-name="chevron-right" d="M421.482 170.664c-34.219 0-66.347 13.312-90.539 37.504-24.149 24.149-37.461 56.32-37.461 90.496s13.312 66.347 37.504 90.539l122.795 122.795-122.795 122.837c-24.192 24.149-37.504 56.32-37.504 90.496s13.312 66.347 37.504 90.539c48.341 48.299 132.651 48.341 181.035-0.043l303.829-303.829-303.872-303.829c-24.149-24.192-56.277-37.504-90.496-37.504zM421.482 767.997c-11.435 0-22.101-4.437-30.165-12.459-8.064-8.107-12.501-18.816-12.501-30.208s4.437-22.101 12.501-30.165l183.125-183.168-183.125-183.168c-8.064-8.064-12.501-18.731-12.501-30.165s4.437-22.101 12.501-30.165c16.128-16.171 44.245-16.128 60.331-0.043l243.541 243.541-243.541 243.499c-8.064 8.064-18.731 12.501-30.165 12.501z" />
<glyph unicode="&#xe906;" glyph-name="chevron-down" d="M853.335 607.698c0-34.219-13.312-66.347-37.504-90.539l-303.829-303.829-303.829 303.872c-48.341 48.341-48.341 132.693 0 181.035 24.149 24.149 56.32 37.461 90.496 37.461s66.347-13.312 90.539-37.504l122.795-122.795 122.837 122.795c24.149 24.192 56.32 37.504 90.496 37.504s66.347-13.312 90.539-37.504c24.149-24.149 37.461-56.277 37.461-90.496zM512.002 333.991l243.499 243.541c16.128 16.128 16.085 44.245 0 60.331-8.064 8.064-18.731 12.501-30.165 12.501s-22.101-4.437-30.165-12.501l-183.168-183.125-183.168 183.125c-8.064 8.064-18.773 12.501-30.165 12.501s-22.101-4.437-30.165-12.501c-16.171-16.128-16.128-44.245-0.043-60.331l243.541-243.541z" />
<glyph unicode="&#xe907;" glyph-name="chevron-upt" d="M170.665 416.302c0 34.219 13.312 66.347 37.504 90.539l303.829 303.829 303.829-303.872c48.341-48.341 48.341-132.693 0-181.035-24.149-24.149-56.32-37.461-90.496-37.461s-66.347 13.312-90.539 37.504l-122.795 122.795-122.837-122.795c-24.149-24.192-56.32-37.504-90.496-37.504s-66.347 13.312-90.539 37.504c-24.149 24.149-37.461 56.277-37.461 90.496zM511.998 690.009l-243.499-243.541c-16.128-16.128-16.085-44.245 0-60.331 8.064-8.064 18.731-12.501 30.165-12.501s22.101 4.437 30.165 12.501l183.168 183.125 183.168-183.125c8.064-8.064 18.773-12.501 30.165-12.501s22.101 4.437 30.165 12.501c16.171 16.128 16.128 44.245 0.043 60.331l-243.541 243.541z" />
<glyph unicode="&#xe908;" glyph-name="link" d="M767.999 814.934c12.032 0 23.979-4.523 33.152-13.696 18.389-18.389 18.389-48.085 0-66.432l-73.387-73.515 13.099-13.141c24.96-24.917 38.656-58.112 38.656-93.525s-13.696-68.565-38.656-93.483l-178.005-178.005c-24.917-24.917-58.069-38.656-93.483-38.656s-68.565 13.739-93.483 38.656l-13.227 13.184-73.515-73.515c-9.173-9.173-21.12-13.739-33.152-13.739s-23.979 4.565-33.152 13.739c-18.389 18.347-18.389 48.043 0 66.432l73.387 73.387-13.141 13.184c-24.875 24.917-38.613 58.069-38.613 93.483s13.696 68.608 38.613 93.525l178.048 178.048c24.917 24.917 59.179 37.333 93.483 37.333s68.565-12.416 93.483-37.333l13.227-13.141 73.515 73.515c9.173 9.173 21.12 13.696 33.152 13.696zM767.999 900.267c-35.328 0-68.48-13.696-93.483-38.741l-20.992-20.949c-30.165 14.976-64.171 22.997-98.816 22.997-58.155 0-114.219-22.741-153.813-62.336l-178.005-178.048c-41.131-41.045-63.744-95.616-63.744-153.899 0-35.072 8.192-68.949 23.808-99.285l-20.437-20.48c-25.003-24.96-38.784-58.197-38.784-93.568 0-35.285 13.739-68.48 38.741-93.483 24.917-25.003 58.155-38.741 93.483-38.741s68.48 13.739 93.483 38.741l20.48 20.48c30.336-15.573 64.171-23.851 99.328-23.851 58.155 0 112.853 22.613 153.813 63.659l178.005 178.005c41.088 41.045 63.659 95.659 63.659 153.813 0 35.157-8.192 68.992-23.808 99.328l20.437 20.48c25.131 25.045 38.912 58.283 38.912 93.568 0 35.328-13.739 68.523-38.741 93.525-25.045 25.088-58.197 38.784-93.525 38.784zM507.732 594.39c0.725-22.827 9.941-44.203 26.155-60.416 16.256-16.213 37.589-25.515 60.416-26.197l-78.165-78.123c-0.725 22.784-9.984 44.16-26.155 60.373-16.256 16.213-37.589 25.472-60.416 26.197l78.165 78.165zM554.665 685.654c-10.325 0-19.968-4.011-27.179-11.179l-178.005-178.005c-7.168-7.168-11.093-16.853-11.093-27.179 0-10.24 3.925-19.925 11.093-27.093l13.184-13.141 30.848 30.848c9.173 9.173 21.12 13.696 33.152 13.696s23.979-4.523 33.152-13.696c18.389-18.389 18.389-48.085 0-66.432l-30.72-30.848 13.141-13.141c7.168-7.168 17.109-10.795 27.136-10.795s19.968 3.584 27.179 10.795l178.005 178.048c7.168 7.168 11.093 16.853 11.093 27.093 0 10.325-3.925 20.011-11.093 27.179l-13.227 13.184-30.848-30.848c-9.173-9.173-21.12-13.739-33.152-13.739s-23.979 4.565-33.152 13.739c-18.389 18.347-18.389 48.043 0 66.432l30.72 30.72-13.099 13.184c-7.211 7.168-16.853 11.179-27.136 11.179z" />
<glyph unicode="&#xe909;" glyph-name="download" d="M895.401 256c0 4.48-0.171 9.003-1.621 13.483l-85.333 256c-5.803 17.451-22.016 29.184-40.448 29.184h-23.936l29.099 28.928c49.92 49.92 49.92 131.072 0 180.992-34.56 34.645-88.235 45.995-133.163 30.251v58.496c0 70.571-57.429 128-128 128s-128-57.429-128-128v-58.496c-44.885 15.744-98.603 4.395-133.163-30.251-49.92-49.92-49.92-131.072 0.085-181.077l29.013-28.843h-23.936c-18.432 0-34.645-11.733-40.448-29.184l-85.333-256c-1.451-4.48-1.621-9.003-1.621-13.483-0.597 0-0.597-213.333-0.597-213.333 0-23.595 19.072-42.667 42.667-42.667h682.667c23.595 0 42.667 19.072 42.667 42.667 0 0 0 213.333-0.597 213.333zM311.166 704.256c8.064 7.979 18.731 12.501 30.165 12.501s22.101-4.437 30.165-12.501l97.835-97.835v246.912c0 23.552 19.115 42.667 42.667 42.667s42.667-19.115 42.667-42.667v-246.912l97.835 97.835c16.171 16.085 44.16 16.085 60.331 0 16.683-16.64 16.683-43.648 0.085-60.245l-200.917-199.851-200.832 199.765c-16.683 16.555-16.683 43.691 0 60.331zM286.761 469.333h79.019l146.304-145.493 146.261 145.493h79.019l71.125-213.333h-592.811l71.083 213.333zM810.665 85.333h-597.333v128h597.333v-128z" />
<glyph unicode="&#xe90a;" glyph-name="export" d="M969.003 606.037c-1.749 1.749-173.013 174.763-255.232 262.229-17.92 17.664-42.624 27.733-67.669 27.733-50.432 0-91.435-38.229-91.435-85.333h-341.333c-23.595 0-42.667-19.115-42.667-42.667v-597.333c0-23.552 19.072-42.667 42.667-42.667h597.333c23.595 0 42.667 19.115 42.667 42.667v257.92c61.184 62.336 114.688 116.437 115.669 117.376 16.512 16.64 16.512 43.435 0 60.075zM651.904 343.851c-0.939-1.152-2.773-2.517-5.803-2.517-3.157 0-5.163 0.981-6.144 1.707v168.96h-42.667c-75.563-1.451-142.336-29.013-202.795-83.541 18.347 94.507 68.267 211.541 202.795 211.541h42.667v168.875c1.195 0.896 3.029 1.792 6.144 1.792 3.84 0 6.485-2.133 6.571-2.133 61.269-65.067 172.843-178.645 226.005-232.533-10.795-10.965-185.259-188.672-226.773-232.149zM256 213.333v512h341.333c0-14.848 0-29.653 0-42.667-198.827 0-256-207.829-256-362.667v-21.333c72.149 109.995 153.6 168.661 256 170.667 0-44.587 0-121.088 0-128 0-23.509 21.845-42.667 48.768-42.667 15.531 0 28.843 6.741 37.675 16.683 22.997 24.107 52.992 55.083 84.309 87.168v-189.184h-512.085z" />
<glyph unicode="&#xe90b;" glyph-name="menu" d="M810.667 256c23.467 0 42.667-19.2 42.667-42.667s-19.2-42.667-42.667-42.667h-597.333c-23.467 0-42.667 19.2-42.667 42.667s19.2 42.667 42.667 42.667h597.333zM810.667 341.333h-597.333c-70.571 0-128-57.429-128-128s57.429-128 128-128h597.333c70.571 0 128 57.429 128 128s-57.429 128-128 128zM810.667 554.667c23.467 0 42.667-19.2 42.667-42.667s-19.2-42.667-42.667-42.667h-597.333c-23.467 0-42.667 19.2-42.667 42.667s19.2 42.667 42.667 42.667h597.333zM810.667 640h-597.333c-70.571 0-128-57.429-128-128s57.429-128 128-128h597.333c70.571 0 128 57.429 128 128s-57.429 128-128 128zM810.667 853.333c23.467 0 42.667-19.2 42.667-42.667s-19.2-42.667-42.667-42.667h-597.333c-23.467 0-42.667 19.2-42.667 42.667s19.2 42.667 42.667 42.667h597.333zM810.667 938.667h-597.333c-70.571 0-128-57.429-128-128s57.429-128 128-128h597.333c70.571 0 128 57.429 128 128s-57.429 128-128 128z" />
<glyph unicode="&#xe90c;" glyph-name="close" d="M682.667 213.333c-34.219 0-66.347 13.312-90.539 37.504l-80.128 80.171-80.171-80.171c-48.341-48.341-132.651-48.341-181.035 0-24.149 24.149-37.461 56.32-37.461 90.496s13.312 66.347 37.504 90.539l80.128 80.128-80.128 80.171c-24.192 24.149-37.504 56.32-37.504 90.496s13.312 66.347 37.504 90.539c48.341 48.299 132.651 48.341 181.035-0.043l80.128-80.171 80.171 80.171c48.341 48.341 132.651 48.341 181.035 0 24.149-24.149 37.461-56.32 37.461-90.496s-13.312-66.347-37.504-90.539l-80.128-80.128 80.128-80.171c24.192-24.149 37.504-56.32 37.504-90.496s-13.312-66.347-37.504-90.539c-24.149-24.149-56.277-37.461-90.496-37.461zM512 451.669l140.501-140.501c16.128-16.128 44.245-16.085 60.331 0 8.064 8.064 12.501 18.731 12.501 30.165s-4.437 22.101-12.501 30.165l-140.459 140.501 140.459 140.501c8.064 8.064 12.501 18.773 12.501 30.165s-4.437 22.101-12.501 30.165c-16.128 16.171-44.245 16.128-60.331 0.043l-140.501-140.544-140.501 140.501c-16.128 16.128-44.245 16.085-60.331 0-8.064-8.064-12.501-18.773-12.501-30.165s4.437-22.101 12.501-30.165l140.459-140.501-140.459-140.501c-8.064-8.064-12.501-18.731-12.501-30.165s4.437-22.101 12.501-30.165c16.128-16.171 44.245-16.128 60.331-0.043l140.501 140.544z" />
<glyph unicode="&#xe90d;" glyph-name="home" d="M949.845 577.365c-144.64 121.771-407.296 348.629-409.899 350.933l-27.947 24.021-27.819-24.021c-2.645-2.261-265.429-229.035-412.16-351.915-18.688-16.811-29.355-40.32-29.355-64.384 0-47.104 38.229-85.333 85.333-85.333h42.667v-256c0-47.104 38.229-85.333 85.333-85.333h512c47.104 0 85.333 38.229 85.333 85.333v256h42.667c47.104 0 85.333 38.229 85.333 85.333 0 25.515-11.733 49.536-31.488 65.365zM597.333 170.667h-170.667v213.333h170.667v-213.333zM768 512l0.085-341.333c-0.085 0-128.085 0-128.085 0v256h-256v-256h-128v341.333h-128.043c117.973 98.645 312.107 265.685 384.043 327.68 71.936-61.995 265.984-228.992 384-327.723 0 0-128 0-128 0.043z" />
<glyph unicode="&#xe90e;" glyph-name="info" d="M607.317 340.736l23.637 47.104c34.475 68.693 38.272 137.728 10.795 194.219-5.205 10.752-11.819 20.437-18.901 29.568 60.203 26.411 102.485 86.443 102.485 156.331 0 94.123-76.544 170.667-170.667 170.667s-170.667-76.544-170.667-170.667c0-33.408 9.984-64.341 26.624-90.709-72.363-14.080-119.723-53.248-125.739-58.667-30.549-26.923-37.76-71.68-17.28-106.837 13.824-23.851 37.803-38.784 63.744-41.813l-23.637-47.104c-34.475-68.693-38.272-137.728-10.837-194.219 24.107-49.664 69.163-83.413 126.805-95.104 17.621-3.584 35.669-5.419 53.504-5.419 101.035 0 169.173 57.472 176.64 64.043 30.549 26.88 37.845 71.595 17.365 106.795-13.867 23.723-37.845 38.784-63.872 41.813zM554.667 853.291c47.104 0 85.333-38.229 85.333-85.333s-38.229-85.333-85.333-85.333c-47.147 0-85.333 38.229-85.333 85.333s38.187 85.333 85.333 85.333zM477.184 213.333c-11.563 0-23.851 1.067-36.437 3.712-70.059 14.251-99.328 82.475-56.661 167.552l42.667 85.12c21.333 42.496 20.053 69.547-4.608 86.827-7.723 5.333-18.389 7.211-29.397 7.211-24.619 0-51.243-9.131-51.243-9.131s48.341 42.709 119.979 42.709c11.563 0 23.893-1.067 36.523-3.712 69.973-14.251 99.328-82.475 56.661-167.552l-42.667-85.035c-21.333-42.581-20.139-69.632 4.523-86.827 7.723-5.376 18.475-7.211 29.525-7.211 24.619 0 51.2 9.045 51.2 9.045s-48.341-42.709-120.064-42.709z" />
<glyph unicode="&#xe90f;" glyph-name="alert" d="M512 788.864c23.936 0 47.744-15.104 65.877-45.312l252.245-420.437c36.309-60.373 8.277-109.781-62.123-109.781h-512c-70.4 0-98.432 49.451-62.123 109.781l252.245 420.437c18.133 30.208 41.941 45.312 65.877 45.312zM512 874.197c-55.296 0-105.899-31.573-139.051-86.656l-252.245-420.523c-33.536-55.851-37.205-115.413-10.027-163.413s80.171-75.605 145.323-75.605h512c65.152 0 118.187 27.563 145.323 75.563s23.509 107.563-10.027 163.413l-252.245 420.437c-33.152 55.211-83.755 86.784-139.051 86.784zM567.467 341.333c0-30.633-24.833-55.467-55.467-55.467-30.633 0-55.467 24.833-55.467 55.467s24.833 55.467 55.467 55.467c30.633 0 55.467-24.833 55.467-55.467zM576 597.333c0 35.413-28.629 64-64 64s-64-28.587-64-64c0-8.491 1.749-16.597 4.736-23.979 23.637-58.709 59.264-146.688 59.264-146.688s35.627 87.979 59.349 146.688c2.901 7.381 4.651 15.488 4.651 23.979z" />
<glyph unicode="&#xe910;" glyph-name="folder" d="M768 768h-256c0 47.104-38.229 85.333-85.333 85.333h-170.667c-70.571 0-128-57.429-128-128v-426.667c0-70.571 57.429-128 128-128h512c70.571 0 128 57.429 128 128v341.333c0 70.571-57.429 128-128 128zM256 768h170.667c0-47.104 38.229-85.333 85.333-85.333h256c23.552 0 42.667-19.115 42.667-42.667h-597.333v85.333c0 23.552 19.115 42.667 42.667 42.667zM768 256h-512c-23.552 0-42.667 19.115-42.667 42.667v298.667h597.333v-298.667c0-23.552-19.115-42.667-42.667-42.667z" />
<glyph unicode="&#xe911;" glyph-name="file" d="M840.832 712.832l-170.667 170.667c-7.979 8.021-18.816 12.501-30.165 12.501h-341.333c-70.571 0-128-57.429-128-128v-512c0-70.571 57.429-128 128-128h426.667c70.571 0 128 57.429 128 128v426.667c0 11.349-4.48 22.187-12.501 30.165zM750.336 682.667h-46.336c-35.285 0-64 28.715-64 64v46.336l110.336-110.336zM725.333 213.333h-426.667c-23.552 0-42.667 19.115-42.667 42.667v512c0 23.552 19.115 42.667 42.667 42.667h298.667v-64c0-58.837 47.829-106.667 106.667-106.667h64v-384c0-23.552-19.115-42.667-42.667-42.667z" />
<glyph unicode="&#xe912;" glyph-name="attachment" d="M662.784 833.451c43.691 0 87.467-16.64 120.704-49.877 66.603-66.603 66.603-174.848 0-241.323l-301.696-301.739c-33.195-33.237-76.971-49.92-120.661-49.92s-87.424 16.683-120.661 49.92c-66.56 66.517-66.56 174.848 0 241.323l34.432 34.432c-0.171-34.347 10.667-65.024 29.909-90.667l-4.011-4.096c-33.28-33.237-33.28-87.424 0-120.661 16.64-16.64 38.443-24.917 60.331-24.917s43.691 8.32 60.331 24.917l301.739 301.739c33.195 33.237 33.195 87.424 0 120.661-16.725 16.64-38.571 24.917-60.459 24.917-21.845 0-43.648-8.32-60.288-24.917l-193.493-193.579c-5.461-5.419-6.229-11.733-6.229-15.104 0-3.243 0.811-9.643 6.229-15.061 4.224-4.224 9.728-6.272 15.189-6.272 5.419 0 10.837 2.091 15.019 6.229l150.87 150.827c16.725-16.725 25.003-38.485 25.003-60.331 0-21.803-8.277-43.563-24.917-60.16-0.085-0.171-90.624-90.667-90.624-90.667-20.736-20.779-48.085-31.104-75.435-31.104s-54.613 10.411-75.477 31.104c-20.139 20.224-31.189 46.976-31.189 75.477 0 28.587 11.136 55.339 31.232 75.52l193.451 193.493c33.237 33.237 77.013 49.835 120.704 49.835zM662.784 918.784c-68.437 0-132.693-26.581-180.992-74.88l-301.611-301.781c-48.341-48.256-74.965-112.555-74.965-180.992s26.624-132.693 74.965-181.035c48.256-48.299 112.597-74.88 180.949-74.88s132.693 26.624 180.992 74.965l301.696 301.696c48.341 48.256 74.965 112.555 74.965 180.992 0 68.395-26.581 132.693-74.88 180.949-48.341 48.384-112.64 74.965-181.12 74.965z" />
<glyph unicode="&#xe913;" glyph-name="power" d="M747.093 744.022c-34.731 34.773-84.48 44.8-128.427 31.104v14.208c0 70.656-57.344 128-128 128s-128-57.344-128-128v-14.165c-43.904 13.611-93.653 3.627-128.427-31.147-68.48-68.523-106.24-159.616-106.24-256.469s37.76-187.947 106.24-256.469c68.437-68.48 159.531-106.197 256.427-106.197s187.947 37.717 256.427 106.197c68.48 68.48 106.24 159.573 106.24 256.469s-37.76 187.947-106.24 256.469zM448 789.334c0 23.552 19.072 42.667 42.667 42.667s42.667-19.115 42.667-42.667v-213.333c0-23.552-19.072-42.667-42.667-42.667s-42.667 19.115-42.667 42.667v213.333zM405.333 627.072v-51.072c0-47.104 38.229-85.333 85.333-85.333s85.333 38.229 85.333 85.333v50.432c4.053-12.117 10.581-23.637 20.267-33.28 28.203-28.203 43.733-65.707 43.733-105.6s-15.531-77.397-43.733-105.643c-56.405-56.363-154.752-56.363-211.157 0-28.245 28.245-43.776 65.749-43.776 105.643s15.531 77.397 43.733 105.643c9.856 9.813 16.341 21.504 20.267 33.877zM686.763 291.414c-52.395-52.395-121.984-81.195-196.096-81.195s-143.701 28.843-196.096 81.195c-52.352 52.395-81.237 122.027-81.237 196.139s28.885 143.744 81.237 196.139c16.683 16.683 43.648 16.683 60.331 0s16.683-43.648 0-60.331c-36.267-36.309-56.235-84.523-56.235-135.808s19.968-99.541 56.235-135.808c36.267-36.267 84.437-56.192 135.765-56.192s99.499 19.968 135.765 56.192c36.309 36.267 56.235 84.48 56.235 135.808s-19.968 99.541-56.235 135.808c-16.683 16.683-16.683 43.648 0 60.331s43.648 16.683 60.331 0c52.352-52.437 81.237-122.069 81.237-196.139s-28.885-143.744-81.237-196.139z" />
<glyph unicode="&#xe914;" glyph-name="lock" d="M567.467 298.667c0-30.633-24.833-55.467-55.467-55.467-30.633 0-55.467 24.833-55.467 55.467s24.833 55.467 55.467 55.467c30.633 0 55.467-24.833 55.467-55.467zM725.333 597.333h-42.667v85.333c0 94.123-76.544 170.667-170.667 170.667s-170.667-76.544-170.667-170.667v-85.333h-42.667c-47.104 0-85.333-38.229-85.333-85.333v-298.667c0-47.104 38.229-85.333 85.333-85.333h426.667c47.104 0 85.333 38.229 85.333 85.333v298.667c0 47.104-38.229 85.333-85.333 85.333zM426.667 682.667c0 47.104 38.229 85.333 85.333 85.333s85.333-38.229 85.333-85.333v-128h-170.667v128zM725.333 213.333h-426.667v298.667h426.795l-0.128-298.667z" />
<glyph unicode="&#xe915;" glyph-name="unlock" d="M567.467 298.667c0-30.633-24.833-55.467-55.467-55.467-30.633 0-55.467 24.833-55.467 55.467s24.833 55.467 55.467 55.467c30.633 0 55.467-24.833 55.467-55.467zM768 853.333c-94.123 0-170.667-76.544-170.667-170.667v-128h-170.667v42.667h-128c-47.104 0-85.333-38.229-85.333-85.333v-298.667c0-47.104 38.229-85.333 85.333-85.333h426.667c47.104 0 85.333 38.229 85.333 85.333v298.667c0 47.104-38.229 85.333-85.333 85.333h-42.667v85.333c0 47.104 38.229 85.333 85.333 85.333s85.333-38.229 85.333-85.333v-128c0-23.552 19.115-42.667 42.667-42.667s42.667 19.115 42.667 42.667v128c0 94.123-76.544 170.667-170.667 170.667zM725.333 213.333h-426.667v298.667h426.795l-0.128-298.667z" />
<glyph unicode="&#xe916;" glyph-name="rotate-left" d="M282.965 853.375c20.821 0 51.2-6.187 83.456-32.981 44.203 20.864 93.397 32.896 145.579 32.896 188.501 0 341.333-152.832 341.333-341.333s-152.832-341.333-341.333-341.333c-183.979 0-341.333 141.483-341.333 341.333 0 1.835 0 210.603 0 210.603 0.683 90.069 58.667 130.816 112.299 130.816zM256 511.956h218.795c48.384 0 60.032 23.936 25.771 58.155l-61.781 59.819c23.979 15.829 52.053 23.424 81.451 23.424 39.68 0 77.013-16 105.131-44.075 28.032-27.989 43.52-65.579 43.52-105.259 0-39.808-15.445-77.269-43.52-105.344-28.117-28.075-65.451-43.563-105.131-43.563s-77.013 15.36-105.173 43.477c-7.552 7.68-14.251 15.872-19.968 24.704-9.472 14.72-25.429 22.741-41.771 22.741-9.216 0-18.475-2.56-26.667-7.893-23.040-14.763-29.739-45.355-14.976-68.437 9.515-14.677 20.651-28.501 33.28-41.173 46.805-46.891 109.056-72.661 175.189-72.661s128.384 25.771 175.104 72.576c46.805 46.763 72.576 109.013 72.576 175.189s-25.771 128.512-72.619 175.104c-46.763 46.848-108.971 72.533-175.104 72.533-55.936 0-108.843-18.603-152.149-52.437l-49.237 49.408c-13.269 13.312-25.685 19.669-35.883 19.669-16.085 0-26.752-15.872-26.965-45.44v-210.517zM558.080 509.823c-6.912-16.725-26.88-40.533-83.285-40.533h-55.424c0 0 8.96-21.504 26.197-38.699s46.336-31.787 74.667-31.787 54.997 10.496 75.008 30.507c19.968 20.053 31.019 46.421 31.019 74.752s-11.008 48.597-30.976 68.437c-20.139 20.139-46.805 24.789-75.051 24.789-0.981 0 10.496-5.248 10.496-5.248 39.893-39.851 34.261-65.536 27.349-82.219z" />
<glyph unicode="&#xe917;" glyph-name="rotate-right" d="M741.035 853.375c-20.821 0-51.2-6.187-83.456-32.981-44.203 20.864-93.397 32.896-145.579 32.896-188.501 0-341.333-152.832-341.333-341.333s152.832-341.333 341.333-341.333c183.979 0 341.333 141.483 341.333 341.333 0 1.835 0 210.603 0 210.603-0.683 90.069-58.667 130.816-112.299 130.816zM768 511.956h-218.795c-48.384 0-60.032 23.936-25.771 58.155l61.781 59.819c-23.979 15.829-52.053 23.424-81.451 23.424-39.68 0-77.013-16-105.131-44.075-28.032-27.989-43.52-65.579-43.52-105.259 0-39.808 15.445-77.269 43.52-105.344 28.117-28.075 65.451-43.563 105.131-43.563s77.013 15.36 105.173 43.477c7.552 7.68 14.251 15.872 19.968 24.704 9.472 14.72 25.429 22.741 41.771 22.741 9.216 0 18.475-2.56 26.667-7.893 23.040-14.763 29.739-45.355 14.976-68.437-9.515-14.677-20.651-28.501-33.28-41.173-46.805-46.891-109.056-72.661-175.189-72.661s-128.384 25.771-175.104 72.576c-46.805 46.763-72.576 109.013-72.576 175.189s25.771 128.512 72.619 175.104c46.763 46.848 108.971 72.533 175.104 72.533 55.936 0 108.843-18.603 152.149-52.437l49.237 49.408c13.269 13.312 25.685 19.669 35.883 19.669 16.085 0 26.752-15.872 26.965-45.44v-210.517zM465.92 509.823c6.912-16.725 26.88-40.533 83.285-40.533h55.424c0 0-8.96-21.504-26.197-38.699s-46.336-31.787-74.667-31.787-54.997 10.496-75.008 30.507c-19.968 20.053-31.019 46.421-31.019 74.752s11.008 48.597 30.976 68.437c20.139 20.139 46.805 24.789 75.051 24.789 0.981 0-10.496-5.248-10.496-5.248-39.893-39.851-34.261-65.536-27.349-82.219z" />
<glyph unicode="&#xe918;" glyph-name="clock" d="M682.667 512c0 23.467-19.2 42.667-42.667 42.667h-128c-23.467 0-42.667-19.2-42.667-42.667s19.2-42.667 42.667-42.667h128c23.467 0 42.667 19.2 42.667 42.667zM512 810.667c164.651 0 298.667-134.016 298.667-298.667s-134.016-298.667-298.667-298.667-298.667 134.016-298.667 298.667 134.016 298.667 298.667 298.667zM512 896c-212.096 0-384-171.904-384-384s171.904-384 384-384 384 171.904 384 384-171.904 384-384 384zM554.667 640c0 23.467-19.2 42.667-42.667 42.667s-42.667-19.2-42.667-42.667v-128c0-23.467 19.2-42.667 42.667-42.667s42.667 19.2 42.667 42.667v128zM512 725.334c117.632 0 213.333-95.701 213.333-213.333s-95.701-213.333-213.333-213.333-213.333 95.701-213.333 213.333 95.701 213.333 213.333 213.333zM512 768c-141.312 0-256-114.603-256-256 0-141.312 114.688-256 256-256s256 114.688 256 256c0 141.397-114.688 256-256 256z" />
<glyph unicode="&#xe919;" glyph-name="heart" d="M512 581.333c0 103.083-83.584 186.667-186.667 186.667s-186.667-83.584-186.667-186.667c0-48.085 6.784-118.784 74.667-186.667s298.667-224 298.667-224 230.784 156.117 298.667 224 74.667 138.581 74.667 186.667c0 103.083-83.584 186.667-186.667 186.667s-186.667-83.584-186.667-186.667z" />
<glyph unicode="&#xe91a;" glyph-name="heart-o" d="M512 170.667c-8.32 0-16.683 2.432-23.936 7.339-9.6 6.443-235.008 159.147-304.896 229.163-78.123 78.123-87.168 161.152-87.168 216.832 0 126.464 102.869 229.333 229.333 229.333 76.885 0 144.981-38.016 186.667-96.256 41.685 58.24 109.781 96.256 186.667 96.256 126.464 0 229.333-102.869 229.333-229.333 0-55.68-9.045-138.709-87.168-216.832-70.016-70.016-295.381-222.72-304.896-229.163-7.253-4.907-15.616-7.339-23.936-7.339zM325.333 768c-79.403 0-144-64.597-144-144 0-46.635 7.381-101.717 62.165-156.501 51.712-51.712 208.341-161.067 268.501-202.496 60.16 41.429 216.789 150.784 268.501 202.496 54.784 54.784 62.165 109.867 62.165 156.501 0 79.403-64.597 144-144 144s-144-64.597-144-144c0-23.552-19.072-42.667-42.667-42.667s-42.667 19.115-42.667 42.667c0 79.403-64.597 144-144 144z" />
<glyph unicode="&#xe91b;" glyph-name="star" d="M399.487 633.813c0 0-134.827-14.933-224.768-24.917-8.107-0.981-15.275-6.4-17.963-14.635s0-16.811 5.973-22.229c66.816-60.971 167.211-152.277 167.211-152.277-0.085 0-27.563-132.821-45.824-221.44-1.536-8.021 1.365-16.512 8.363-21.589 6.955-5.077 15.915-5.163 22.955-1.195 78.677 44.715 196.523 111.957 196.523 111.957s117.888-67.243 196.437-112c7.168-3.925 16.128-3.84 23.083 1.237 6.997 5.077 9.899 13.568 8.32 21.547-18.261 88.661-45.696 221.483-45.696 221.483s100.395 91.307 167.211 152.149c5.973 5.589 8.619 14.165 5.973 22.357s-9.813 13.611-17.92 14.549c-89.941 10.069-224.811 25.003-224.811 25.003s-55.893 123.648-93.141 206.080c-3.499 7.381-10.837 12.544-19.456 12.544s-16-5.205-19.328-12.544c-37.291-82.432-93.141-206.080-93.141-206.080z" />
<glyph unicode="&#xe91c;" glyph-name="star-o" d="M719.169 131.264c-9.557 0-18.901 2.133-27.563 6.229-1.493 0.597-2.944 1.323-4.437 2.176l-175.232 99.968-175.232-100.011c-1.493-0.853-2.987-1.579-4.523-2.261-20.821-9.728-46.293-7.424-64.896 6.101-20.011 14.507-29.909 39.808-25.003 64.384l40.832 198.059c-15.957 14.507-41.045 37.333-68.352 62.165l-80.853 73.6c-1.152 1.067-2.347 2.261-3.328 3.499-16 16.896-21.717 41.387-14.507 63.659 7.381 22.357 26.453 38.912 49.493 43.051 1.451 0.341 2.859 0.597 4.352 0.768l200.576 22.229 83.029 183.893c0.725 1.621 1.536 3.2 2.56 4.693 11.179 20.181 32.597 32.896 55.851 32.896 23.168 0 44.544-12.715 55.851-32.853 0.896-1.536 1.749-3.115 2.56-4.779l83.115-183.979 200.576-22.229c1.451-0.128 2.901-0.384 4.437-0.725 22.997-4.267 42.069-20.736 49.408-43.179 7.253-22.229 1.493-46.848-14.507-63.744-1.024-1.109-2.176-2.304-3.328-3.328l-149.248-135.851 40.832-197.632c4.821-25.045-5.035-50.261-25.173-64.811-10.752-7.765-23.723-11.989-37.291-11.989zM371.478 411.328c-1.664-7.765-19.883-95.829-36.053-174.165l155.435 88.619c13.099 7.467 29.184 7.467 42.24 0l155.435-88.533-36.224 175.104c-3.029 14.763 1.92 30.080 13.141 40.192l132.267 120.405-177.835 19.669c-14.976 1.664-27.904 11.093-34.176 24.917l-73.728 163.029-73.643-163.029c-6.229-13.739-19.2-23.168-34.176-24.917l-177.835-19.669 132.267-120.405c11.605-10.496 16.384-26.325 12.885-41.216z" />
<glyph unicode="&#xe91d;" glyph-name="thumbs-up" d="M834.987 653.824c-16.683 6.144-107.179 17.323-165.675 23.893 9.173 53.547 13.355 102.613 13.355 154.283 0 58.837-47.872 106.667-106.667 106.667s-106.667-47.829-106.667-106.667c0-80-28.416-116.821-68.949-157.824-23.381 30.805-60.032 51.157-101.717 51.157-70.571 0-128-57.429-128-128v-256c0-70.571 57.429-128 128-128 32.213 0 61.355 12.373 83.84 32.085 2.731-2.645 4.992-6.016 8.021-8.235 40.96-31.403 156.459-66.517 249.515-66.517 80.171 0 111.275 12.501 138.795 23.595 4.437 1.749 8.832 3.584 13.483 5.248 35.584 13.013 67.243 52.352 74.069 93.867l28.416 254.891c7.381 44.245-18.901 90.667-59.819 105.557zM298.667 298.667c-23.509 0-42.667 19.115-42.667 42.667v256c0 23.552 19.157 42.667 42.667 42.667s42.667-19.115 42.667-42.667v-256c0-23.552-19.157-42.667-42.667-42.667zM781.952 305.067c-1.579-9.557-12.459-23.083-18.901-25.429-5.589-2.091-10.837-4.224-16.043-6.229-23.253-9.344-43.349-17.408-107.008-17.408-81.664 0-175.701 32.128-197.632 48.896-6.741 5.12-15.701 24.064-15.701 36.437v212.48c0.128 2.005 2.176 27.989 30.165 55.979 38.955 38.997 97.835 97.877 97.835 222.208 0 11.733 9.6 21.333 21.333 21.333s21.333-9.6 21.333-21.333c0-60.032-6.229-116.48-20.437-183.168l-12.672-59.563 56.363 8.021c25.728-2.133 167.808-19.072 184.917-23.467 2.475-1.28 5.632-7.808 4.736-13.781l-28.288-254.976z" />
<glyph unicode="&#xe91e;" glyph-name="thumbs-down" d="M725.333 810.667c-32.213 0-61.355-12.331-83.84-32.043-2.731 2.645-4.949 5.973-8.021 8.192-40.96 31.445-156.373 66.517-249.472 66.517-80.171 0-111.232-12.501-138.752-23.552-4.395-1.792-8.832-3.627-13.483-5.291-35.584-13.013-67.328-52.437-74.155-93.867l-28.331-254.805c-7.424-44.331 18.816-90.752 59.733-105.728 16.811-6.144 107.179-17.28 165.675-23.893-9.173-53.589-13.312-102.613-13.312-154.283 0-58.837 47.829-106.667 106.667-106.667s106.667 47.829 106.667 106.667c0 80 28.459 116.779 68.949 157.824 23.381-30.891 60.075-51.157 101.717-51.157 70.528 0 127.957 57.472 127.957 128v256c-0.043 70.656-57.429 128.085-128 128.085zM469.333 192c0-11.733-9.6-21.333-21.333-21.333s-21.333 9.6-21.333 21.333c0 77.013 10.923 138.283 20.437 183.168l12.672 59.648-56.363-8.021c-25.813 2.133-167.851 19.072-184.96 23.552-2.475 1.195-5.632 7.68-4.608 13.696l28.288 254.976c1.579 9.515 12.416 22.997 18.901 25.344 5.589 2.091 10.837 4.224 16.085 6.229 23.211 9.344 43.307 17.408 106.923 17.408 81.664 0 175.701-32.128 197.675-48.896 6.656-5.12 15.616-24.064 15.616-36.437v-212.352c-0.043-1.109-1.707-27.691-30.165-56.149-38.955-38.955-97.835-97.835-97.835-222.165zM768 426.667c0-23.552-19.115-42.667-42.667-42.667s-42.667 19.115-42.667 42.667v256c0 23.552 19.115 42.667 42.667 42.667s42.667-19.115 42.667-42.667v-256z" />
<glyph unicode="&#xe91f;" glyph-name="mood-1" d="M512 426c100 0 184-60 218-148h-436c34 88 118 148 218 148zM362 554c-36 0-64 28-64 64s28 64 64 64 64-28 64-64-28-64-64-64zM662 554c-36 0-64 28-64 64s28 64 64 64 64-28 64-64-28-64-64-64zM512 170c188 0 342 154 342 342s-154 342-342 342-342-154-342-342 154-342 342-342zM512 938c236 0 426-190 426-426s-190-426-426-426-426 190-426 426 190 426 426 426z" />
<glyph unicode="&#xe920;" glyph-name="mood-2" d="M512 426c100 0 184-60 218-148h-70c-30 50-84 84-148 84s-118-34-148-84h-70c34 88 118 148 218 148zM512 170c188 0 342 154 342 342s-154 342-342 342-342-154-342-342 154-342 342-342zM512 938c236 0 426-190 426-426s-190-426-426-426-426 190-426 426 190 426 426 426zM298 618c0 36 28 64 64 64s64-28 64-64-28-64-64-64-64 28-64 64zM598 618c0 36 28 64 64 64s64-28 64-64-28-64-64-64-64 28-64 64z" />
<glyph unicode="&#xe921;" glyph-name="mood-3" d="M512 170c188 0 342 154 342 342s-154 342-342 342-342-154-342-342 154-342 342-342zM512 938c236 0 426-190 426-426s-190-426-426-426-426 190-426 426 190 426 426 426zM298 618c0 36 28 64 64 64s64-28 64-64-28-64-64-64-64 28-64 64zM598 618c0 36 28 64 64 64s64-28 64-64-28-64-64-64-64 28-64 64zM384 426h256v-64h-256v64z" />
<glyph unicode="&#xe922;" glyph-name="mood-4" d="M512 342c64 0 118 34 148 84h70c-34-88-118-148-218-148s-184 60-218 148h70c30-50 84-84 148-84zM512 170c188 0 342 154 342 342s-154 342-342 342-342-154-342-342 154-342 342-342zM512 938c236 0 426-190 426-426s-190-426-426-426-426 190-426 426 190 426 426 426zM298 618c0 36 28 64 64 64s64-28 64-64-28-64-64-64-64 28-64 64zM598 618c0 36 28 64 64 64s64-28 64-64-28-64-64-64-64 28-64 64z" />
<glyph unicode="&#xe923;" glyph-name="mood-5" d="M512 278c-100 0-184 60-218 148h436c-34-88-118-148-218-148zM362 554c-36 0-64 28-64 64s28 64 64 64 64-28 64-64-28-64-64-64zM662 554c-36 0-64 28-64 64s28 64 64 64 64-28 64-64-28-64-64-64zM512 170c188 0 342 154 342 342s-154 342-342 342-342-154-342-342 154-342 342-342zM512 938c236 0 426-190 426-426s-190-426-426-426-426 190-426 426 190 426 426 426z" />
<glyph unicode="&#xe924;" glyph-name="media-backward" d="M426.667 653.824v-343.466l-176.341 171.733 176.341 171.733zM435.2 750.933c-20.821 0-39.723-8.405-53.461-21.845-101.589-98.773-253.739-246.997-253.739-246.997s152.149-148.181 253.611-246.997c13.909-13.44 32.768-21.76 53.589-21.76 42.411 0 76.8 34.347 76.8 76.757v384c0 42.411-34.389 76.843-76.8 76.843zM810.667 653.824v-343.509l-176.341 171.733 176.341 171.776zM819.2 750.933c-20.821 0-39.723-8.405-53.461-21.845-101.589-98.773-253.739-246.997-253.739-246.997s152.149-148.181 253.611-246.997c13.909-13.44 32.768-21.76 53.589-21.76 42.411 0 76.8 34.347 76.8 76.757v384c0 42.411-34.389 76.843-76.8 76.843z" />
<glyph unicode="&#xe925;" glyph-name="media-forward" d="M597.333 653.824l176.341-171.733-176.341-171.776v343.509zM588.8 750.933c-42.411 0-76.8-34.432-76.8-76.843v-384c0-42.411 34.389-76.757 76.8-76.757 20.821 0 39.68 8.32 53.461 21.845 101.589 98.731 253.739 246.912 253.739 246.912s-152.149 148.267-253.611 246.997c-13.952 13.397-32.768 21.845-53.589 21.845zM213.333 653.824l176.341-171.733-176.341-171.776v343.509zM204.8 750.933c-42.411 0-76.8-34.432-76.8-76.843v-384c0-42.411 34.389-76.757 76.8-76.757 20.821 0 39.68 8.32 53.461 21.845 101.589 98.731 253.739 246.912 253.739 246.912s-152.149 148.224-253.611 246.997c-13.952 13.397-32.768 21.845-53.589 21.845z" />
<glyph unicode="&#xe926;" glyph-name="media-play" d="M383.915 725.247c1.152-1.109 2.389-2.261 3.627-3.328l215.509-209.92-217.429-211.797c-0.555-0.512-1.067-1.024-1.621-1.536l-0.085 426.581zM384 810.666c-47.104 0-85.333-38.229-85.333-85.333v-426.667c0-47.104 38.229-85.333 85.333-85.333 23.168 0 44.075 9.301 59.435 24.235 112.811 109.781 281.899 274.432 281.899 274.432s-169.088 164.651-281.771 274.475c-15.488 14.891-36.395 24.192-59.563 24.192z" />
<glyph unicode="&#xe927;" glyph-name="media-pause" d="M362.666 192c-70.571 0-128 57.429-128 128v384c0 70.571 57.429 128 128 128s128-57.429 128-128v-384c0-70.571-57.429-128-128-128zM362.666 746.666c-23.552 0-42.667-19.157-42.667-42.667v-384c0-23.509 19.115-42.667 42.667-42.667s42.667 19.157 42.667 42.667v384c0 23.509-19.115 42.667-42.667 42.667zM661.333 192c-70.571 0-128 57.429-128 128v384c0 70.571 57.429 128 128 128s128-57.429 128-128v-384c0-70.571-57.429-128-128-128zM661.333 746.666c-23.552 0-42.667-19.157-42.667-42.667v-384c0-23.509 19.115-42.667 42.667-42.667s42.667 19.157 42.667 42.667v384c0 23.509-19.115 42.667-42.667 42.667z" />
<glyph unicode="&#xe928;" glyph-name="media-stop" d="M682.667 682.667v-341.333h-341.333v341.333h341.333zM682.667 768h-341.333c-46.933 0-85.333-38.4-85.333-85.333v-341.333c0-46.933 38.4-85.333 85.333-85.333h341.333c46.933 0 85.333 38.4 85.333 85.333v341.333c0 46.933-38.4 85.333-85.333 85.333z" />
<glyph unicode="&#xe929;" glyph-name="volume" d="M688.554 818.175c-19.157 0-38.613-6.485-57.856-19.328l-114.005-75.989c-32.128-21.461-94.123-40.192-132.693-40.192-70.571 0-128-57.429-128-128v-85.333c0-70.571 57.429-128 128-128 38.571 0 100.565-18.731 132.651-40.149l114.005-75.989c19.243-12.843 38.699-19.328 57.856-19.328 38.315-0.043 79.488 29.013 79.488 92.8v426.667c0 63.787-41.173 92.843-79.445 92.843zM554.666 377.77c-46.635 27.776-118.997 48.896-170.667 48.896-23.552 0-42.667 19.115-42.667 42.667v85.333c0 23.552 19.115 42.667 42.667 42.667 51.669 0 124.032 21.12 170.667 48.896v-268.459zM682.666 298.666c0-1.963-0.085-3.669-0.256-5.12-1.28 0.683-2.773 1.536-4.437 2.645l-80.64 53.76v324.096l80.683 53.803c1.621 1.067 3.115 1.963 4.437 2.645 0.128-1.493 0.213-3.2 0.213-5.163v-426.667z" />
<glyph unicode="&#xe92a;" glyph-name="volume-down" d="M603.218 818.175c-19.157 0-38.613-6.485-57.856-19.328l-114.005-75.989c-32.128-21.461-94.123-40.192-132.693-40.192-70.571 0-128-57.429-128-128v-85.333c0-70.571 57.429-128 128-128 38.571 0 100.565-18.731 132.651-40.149l114.005-75.989c19.243-12.843 38.699-19.328 57.856-19.328 38.315-0.043 79.488 29.013 79.488 92.8v426.667c0 63.787-41.173 92.843-79.445 92.843zM298.663 426.666c-23.552 0-42.667 19.115-42.667 42.667v85.333c0 23.552 19.115 42.667 42.667 42.667 51.669 0 124.032 21.12 170.667 48.896v-268.501c-46.635 27.819-118.997 48.939-170.667 48.939zM597.33 298.666c0-1.963-0.085-3.669-0.256-5.12-1.28 0.683-2.773 1.536-4.437 2.645l-80.64 53.76v324.096l80.683 53.803c1.621 1.067 3.115 1.963 4.437 2.645 0.128-1.493 0.213-3.2 0.213-5.163v-426.667zM737.789 627.455c-16.64-16.683-16.64-43.648 0.085-60.331 14.72-14.72 22.827-34.261 22.827-55.083 0-20.864-8.107-40.448-22.869-55.211-16.683-16.64-16.683-43.648 0-60.331 8.32-8.32 19.243-12.501 30.165-12.501s21.845 4.181 30.165 12.501c30.891 30.848 47.872 71.893 47.872 115.541s-16.981 84.651-47.915 115.499c-16.597 16.597-43.648 16.683-60.331-0.085z" />
<glyph unicode="&#xe92b;" glyph-name="volume-up" d="M670.122 627.541c-16.597 16.597-43.648 16.683-60.331-0.085-16.64-16.683-16.64-43.648 0.085-60.331 14.72-14.72 22.827-34.261 22.827-55.083 0-20.864-8.107-40.448-22.869-55.211-16.683-16.64-16.683-43.648 0-60.331 8.32-8.32 19.243-12.501 30.165-12.501s21.845 4.181 30.165 12.501c30.891 30.848 47.872 71.893 47.872 115.541s-16.981 84.651-47.915 115.499zM755.456 712.874c-16.683 16.597-43.648 16.64-60.331-0.085-16.64-16.683-16.64-43.691 0.085-60.331 37.504-37.419 58.155-87.211 58.197-140.245 0.043-53.163-20.651-103.125-58.24-140.715-16.683-16.683-16.683-43.648 0-60.331 8.32-8.32 19.243-12.501 30.165-12.501s21.845 4.181 30.165 12.501c53.717 53.717 83.285 125.141 83.243 201.088-0.043 75.819-29.611 147.072-83.285 200.619zM840.789 798.207c-16.683 16.597-43.648 16.64-60.331-0.085-16.64-16.683-16.64-43.691 0.085-60.331 60.245-60.117 93.483-140.16 93.525-225.451 0.085-85.419-33.152-165.76-93.568-226.176-16.683-16.683-16.683-43.648 0-60.331 8.32-8.32 19.243-12.501 30.165-12.501s21.845 4.181 30.165 12.501c76.544 76.544 118.656 178.347 118.571 286.592-0.043 108.075-42.197 209.579-118.613 285.781zM475.221 818.175c-19.157 0-38.613-6.485-57.856-19.328l-114.048-76.032c-32.085-21.419-94.080-40.149-132.651-40.149-70.571 0-128-57.429-128-128v-85.333c0-70.571 57.429-128 128-128 38.571 0 100.565-18.731 132.651-40.149l114.005-75.989c19.243-12.843 38.699-19.328 57.856-19.328 38.315-0.043 79.488 29.013 79.488 92.8v426.667c0 63.787-41.173 92.843-79.445 92.843zM170.666 426.666c-23.552 0-42.667 19.115-42.667 42.667v85.333c0 23.552 19.115 42.667 42.667 42.667 51.669 0 124.032 21.12 170.667 48.896v-268.501c-46.635 27.819-118.997 48.939-170.667 48.939zM469.333 298.666c0-1.963-0.085-3.669-0.256-5.12-1.28 0.683-2.773 1.536-4.437 2.645l-80.64 53.76v324.096l80.683 53.803c1.621 1.067 3.115 1.963 4.437 2.645 0.128-1.493 0.213-3.2 0.213-5.163v-426.667z" />
<glyph unicode="&#xe92c;" glyph-name="volume-mute" d="M840.832 798.165c-16.683 16.683-43.648 16.683-60.331 0l-66.176-66.176c-14.72 29.355-42.112 43.52-68.437 43.52-19.157 0-38.613-6.485-57.856-19.328l-114.005-75.989c-32.128-21.461-94.123-40.192-132.693-40.192-70.571 0-128-57.429-128-128v-85.333c0-52.779 32.171-98.219 77.909-117.76l-65.408-65.408c-16.683-16.683-16.683-43.648 0-60.331 8.32-8.32 19.243-12.501 30.165-12.501s21.845 4.181 30.165 12.501l107.819 107.819c29.739-7.424 60.416-19.413 80-32.512l114.005-75.989c19.243-12.843 38.699-19.328 57.856-19.328 38.315 0 79.488 29.056 79.488 92.843v366.336l115.499 115.499c16.683 16.683 16.683 43.648 0 60.331zM635.349 685.184c1.621 1.067 3.115 1.963 4.437 2.645 0.128-1.493 0.213-3.2 0.213-5.163v-55.168l-85.333-85.333v89.216l80.683 53.803zM298.667 512c0 23.552 19.115 42.667 42.667 42.667 51.669 0 124.032 21.12 170.667 48.896v-104.064l-120.747-120.747c-17.621 3.285-34.731 5.248-49.92 5.248-23.552 0-42.667 19.115-42.667 42.667v85.333zM439.509 366.677l72.491 72.491v-104.064c-20.523 12.245-45.867 23.125-72.491 31.573zM639.744 250.88c-1.28 0.683-2.773 1.536-4.437 2.645l-80.64 53.76v174.549l85.333 85.333v-311.168c0-1.963-0.085-3.669-0.256-5.12z" />
<glyph unicode="&#xe92d;" glyph-name="fullscreen" d="M853.333 896h-223.701c-55.552 0-102.443-35.755-120.107-85.333h-296.192v-301.269c0-1.749 0.469-3.371 0.512-5.12-49.792-17.493-85.845-64.512-85.845-120.277v-298.666h298.667c55.936 0 110.635 35.243 128 85.333h298.667v301.269c0 1.749-0.469 3.371-0.512 5.12 49.792 17.493 85.845 64.512 85.845 120.277v298.666h-85.333zM767.999 256h-213.333c-23.595 0-42.667 19.115-42.667 42.667s19.072 42.667 42.667 42.667h128v130.603c0 23.552 19.072 42.667 42.667 42.667s42.667-19.115 42.667-42.667v-215.936zM298.666 725.333h215.936c23.595 0 42.667-19.115 42.667-42.667s-19.072-42.667-42.667-42.667h-130.603v-130.603c0-23.552-19.115-42.667-42.667-42.667-23.595 0-42.667 19.115-42.667 42.667v215.936zM853.333 597.333c0-23.552-19.072-42.667-42.667-42.667s-42.667 19.115-42.667 42.667v67.669l-140.501-140.501c-8.32-8.32-19.243-12.501-30.165-12.501s-21.845 4.181-30.165 12.501c-16.683 16.683-16.683 43.648 0 60.331l140.501 140.501h-67.669c-23.595 0-42.667 19.115-42.667 42.667s19.072 42.667 42.667 42.667h213.333v-213.333zM426.666 170.667h-170.496c-0.341 0-42.837 0-42.837 0v213.333c0 23.552 19.072 42.667 42.667 42.667s42.667-19.115 42.667-42.667v-67.669l140.501 140.501c8.32 8.32 19.243 12.501 30.165 12.501s21.845-4.181 30.165-12.501c16.683-16.683 16.683-43.648 0-60.331l-140.501-140.501h67.669c23.595 0 42.667-19.115 42.667-42.667s-19.115-42.667-42.667-42.667zM529.663 486.997c-16.128 16.128-37.547 25.003-60.331 25.003-15.659 0-30.549-4.48-43.648-12.331 0.341 3.243 0.981 6.4 0.981 9.728v87.936h87.936c3.328 0 6.485 0.597 9.771 0.981-7.936-13.099-12.373-27.989-12.373-43.648 0-22.784 8.875-44.203 25.003-60.331s37.547-25.003 60.331-25.003c15.659 0 30.549 4.48 43.648 12.331-0.341-3.243-0.981-6.4-0.981-9.728v-87.936h-82.731c-5.205 0-10.24-0.64-15.189-1.536 8.064 13.227 12.587 28.331 12.587 44.203 0 22.784-8.875 44.203-25.003 60.331z" />
<glyph unicode="&#xe92e;" glyph-name="fullscreen-exit" d="M938.667 768c0 34.176-13.312 66.347-37.504 90.496-24.149 24.192-56.32 37.504-90.496 37.504s-66.347-13.312-90.496-37.504l-37.675-37.675c-22.656 20.224-52.48 32.512-85.163 32.512-39.211 0-73.899-18.091-97.408-45.952-9.045 2.005-18.389 3.285-27.989 3.285h-258.602v-258.56c0-10.88 1.792-21.291 4.352-31.403-25.515-23.424-41.813-56.747-41.813-94.037 0-31.36 11.349-60.117 30.080-82.389l-40.405-40.448c-24.235-24.149-37.547-56.32-37.547-90.496s13.312-66.347 37.504-90.496c24.149-24.192 56.32-37.504 90.496-37.504 22.997 0 56.917 6.485 87.936 37.504l38.528 39.211c22.827-21.12 53.376-34.048 86.869-34.048 39.851 0 75.008 18.645 98.517 47.232 10.283-2.688 20.907-4.565 32.085-4.565h253.397v258.602c0 9.643-1.237 18.944-3.285 27.989 27.861 23.467 45.952 58.197 45.952 97.408 0 32.683-12.288 62.507-32.512 85.163l37.675 37.675c24.192 24.149 37.504 56.32 37.504 90.496zM298.667 725.333h170.667c23.595 0 42.667-19.115 42.667-42.667s-19.072-42.667-42.667-42.667h-85.333v-85.333c0-23.552-19.115-42.667-42.667-42.667-23.595 0-42.667 19.115-42.667 42.667v170.667zM840.832 737.835l-140.501-140.501h67.669c23.595 0 42.667-19.115 42.667-42.667s-19.115-42.667-42.667-42.667h-213.333v213.333c0 23.552 19.072 42.667 42.667 42.667s42.667-19.115 42.667-42.667v-67.669l140.501 140.501c8.32 8.32 19.243 12.501 30.165 12.501s21.845-4.181 30.165-12.501c16.683-16.683 16.683-43.648 0-60.331zM512 256c0-23.552-19.072-42.667-42.667-42.667s-42.667 19.115-42.667 42.667v72.832l-143.104-145.664c-8.32-8.32-16.64-12.501-27.563-12.501s-21.845 4.181-30.165 12.501c-16.683 16.683-16.683 43.648 0 60.331l140.501 140.501h-62.507c-23.595 0-42.667 19.115-42.667 42.667s19.072 42.667 42.667 42.667h208.171v-213.333zM512 512h-97.195c7.381 12.587 11.861 27.051 11.861 42.667v42.667h45.269c14.592 0 28.075 4.011 40.064 10.453v-95.787zM554.667 469.333h115.755c-18.475-4.011-30.421-14.080-30.421-40.064v-45.269h-40.064c-16.683 0-32.085-4.992-45.269-13.269v98.603zM557.269 298.667c0 23.552 19.072 42.667 42.667 42.667h82.731v85.333c0 23.552 19.072 42.667 42.667 42.667s42.667-19.115 42.667-42.667v-170.667h-168.064c-23.595 0-42.667 19.115-42.667 42.667z" />
<glyph unicode="&#xe92f;" glyph-name="caption" d="M768 554v44c0 24-18 42-42 42h-128c-24 0-44-18-44-42v-172c0-24 20-42 44-42h128c24 0 42 18 42 42v44h-64v-22h-86v128h86v-22h64zM470 554v44c0 24-20 42-44 42h-128c-24 0-42-18-42-42v-172c0-24 18-42 42-42h128c24 0 44 18 44 42v44h-64v-22h-86v128h86v-22h64zM810 854c46 0 86-40 86-86v-512c0-46-40-86-86-86h-596c-48 0-86 40-86 86v512c0 46 38 86 86 86h596z" />
<glyph unicode="&#xe930;" glyph-name="media-film" d="M341.333 682.667v-298.667h341.333v298.667h-341.333zM640 426.667h-256v213.333h256v-213.333zM725.333 938.667h-128v-85.333h-170.667v85.333h-128c-70.571 0-128-57.429-128-128v-554.667c0-70.571 57.429-128 128-128h128v85.333h170.667v-85.333h128c70.571 0 128 57.429 128 128v554.667c0 70.571-57.429 128-128 128zM768 768c-23.595 0-42.667-19.072-42.667-42.667s19.072-42.667 42.667-42.667v-42.667c-23.595 0-42.667-19.072-42.667-42.667s19.072-42.667 42.667-42.667v-42.667c-23.595 0-42.667-19.072-42.667-42.667s19.072-42.667 42.667-42.667v-42.667c-23.595 0-42.667-19.072-42.667-42.667s19.072-42.667 42.667-42.667v-42.667c0-23.509-19.115-42.667-42.667-42.667h-42.667v85.333h-341.333v-85.333h-42.667c-23.552 0-42.667 19.157-42.667 42.667v42.667c23.595 0 42.667 19.072 42.667 42.667s-19.072 42.667-42.667 42.667v42.667c23.595 0 42.667 19.072 42.667 42.667s-19.072 42.667-42.667 42.667v42.667c23.595 0 42.667 19.072 42.667 42.667s-19.072 42.667-42.667 42.667v42.667c23.595 0 42.667 19.072 42.667 42.667s-19.072 42.667-42.667 42.667v42.667c0 23.509 19.115 42.667 42.667 42.667h42.667v-85.333h341.333v85.333h42.667c23.552 0 42.667-19.157 42.667-42.667v-42.667z" />
<glyph unicode="&#xe931;" glyph-name="media-camera" d="M341.333 554.667c0-23.564-19.103-42.667-42.667-42.667s-42.667 19.103-42.667 42.667c0 23.564 19.103 42.667 42.667 42.667s42.667-19.103 42.667-42.667zM920.96 717.312c-11.179 8.021-25.557 10.283-38.443 5.845l-72.832-24.235c-8.021 63.019-61.909 111.787-127.019 111.787h-469.333c-70.571 0-128-57.472-128-128v-256c0-70.528 57.429-128 128-128h128v-47.403l0.341-3.84c2.816-31.488 16.256-60.715 37.845-82.261 23.979-23.979 55.936-37.205 89.771-37.205s65.792 13.227 89.771 37.12c24.491 24.619 38.315 57.429 38.229 90.155v43.392h85.333c65.024 0 118.997 48.853 127.061 111.787l72.832-24.235c12.928-4.437 27.307-2.176 38.4 5.888 11.179 8.021 17.707 20.907 17.707 34.645v256c0.043 13.568-6.528 26.496-17.664 34.56zM512 255.019c0.043-10.581-5.077-21.333-13.184-29.397-8.149-8.064-18.816-12.203-29.525-12.203-10.667 0-21.376 4.139-29.44 12.203-8.107 8.064-12.16 18.816-13.184 29.483v86.229h85.333v-86.315zM725.333 426.667c0-23.552-19.115-42.667-42.667-42.667h-469.333c-23.552 0-42.667 19.115-42.667 42.667v256c0 23.552 19.115 42.667 42.667 42.667h469.333c23.552 0 42.667-19.115 42.667-42.667v-256zM853.333 485.931c0 0-80.853 25.813-85.333 25.813v85.845c4.48 0 85.333 25.813 85.333 25.813v-137.472z" />
<glyph unicode="&#xe932;" glyph-name="media-image" d="M362.667 682.709c35.285 0 64-28.715 64-64s-28.715-64-64-64-64 28.715-64 64 28.715 64 64 64zM362.667 725.376c-58.923 0-106.667-47.744-106.667-106.667s47.744-106.667 106.667-106.667 106.667 47.744 106.667 106.667-47.744 106.667-106.667 106.667zM682.667 512.043c19.2-2.176 54.187-76.971 75.904-170.709h-486.059c18.517 44.117 45.013 85.376 68.779 85.376 34.389 0 48-7.893 65.28-17.92 19.072-11.008 42.923-24.747 84.053-24.747 48.555 0 82.859 37.76 113.195 71.083 26.752 29.312 51.968 56.917 78.848 56.917zM682.667 554.709c-85.333 0-128-128-192-128s-63.957 42.667-149.333 42.667c-85.333 0-128.043-170.667-128.043-170.667h597.376c0 0-42.667 256-128 256zM938.667 768c0 47.104-38.229 85.333-85.333 85.333h-682.667c-47.104 0-85.333-38.229-85.333-85.333v-512c0-47.104 38.229-85.333 85.333-85.333h682.667c47.104 0 85.333 38.229 85.333 85.333v512zM853.333 256h-682.667v512h682.795l-0.128-512z" />
<glyph unicode="&#xe933;" glyph-name="check" d="M469.333 170.667c-34.176 0-66.347 13.312-90.496 37.504l-170.667 170.667c-24.192 24.149-37.504 56.32-37.504 90.496s13.312 66.347 37.504 90.539c48.341 48.341 132.651 48.341 180.992 0l50.688-50.688 130.944 235.648c22.443 40.619 65.408 65.877 111.957 65.877 21.632 0 43.179-5.589 62.123-16.128 29.867-16.64 51.456-43.861 60.885-76.715 9.429-32.896 5.419-67.456-11.221-97.365l-213.333-384c-19.371-34.901-54.571-59.051-94.123-64.597-5.931-0.811-11.819-1.237-17.749-1.237zM298.667 512c-11.435 0-22.101-4.437-30.165-12.501s-12.501-18.731-12.501-30.165 4.437-22.101 12.501-30.165l170.667-170.667c9.515-9.429 22.315-14.080 36.011-12.075 13.312 1.835 25.003 9.899 31.445 21.504l213.333 384c5.547 9.941 6.869 21.461 3.755 32.427s-10.368 20.053-20.395 25.6c-20.181 11.264-46.976 3.328-57.899-16.555l-185.899-334.549-130.645 130.645c-8.107 8.064-18.773 12.501-30.208 12.501z" />
<glyph unicode="&#xe934;" glyph-name="magnify" d="M554.667 682.667c70.656 0 128-57.344 128-128s-57.344-128-128-128-128 57.344-128 128 57.344 128 128 128zM554.667 725.333c-94.123 0-170.667-76.544-170.667-170.667s76.544-170.667 170.667-170.667 170.667 76.544 170.667 170.667-76.544 170.667-170.667 170.667zM136.321 269.909c0-73.685 59.904-133.589 133.589-133.589 32.256 0 64.128 11.819 89.771 33.408l102.272 101.803c29.227-9.685 60.245-15.531 92.715-15.531 164.693 0 298.667 134.016 298.667 298.667s-133.973 298.667-298.667 298.667c-164.651 0-298.667-134.016-298.667-298.667 0-32.469 5.803-63.403 15.531-92.715l-95.787-97.408c-25.429-25.173-39.424-58.795-39.424-94.635zM411.905 342.187l-107.179-107.136c-9.515-7.979-21.504-13.355-34.816-13.355-26.624 0-48.256 21.589-48.256 48.256 0 13.269 5.419 25.344 14.165 34.005l106.325 107.989c18.56-27.52 42.24-51.2 69.76-69.76zM554.667 341.333c-117.632 0-213.333 95.701-213.333 213.333s95.701 213.333 213.333 213.333 213.333-95.701 213.333-213.333-95.701-213.333-213.333-213.333z" />
<glyph unicode="&#xe935;" glyph-name="zoom-in" d="M554.667 554.667h-85.333v85.333c0 11.733-9.6 21.333-21.333 21.333s-21.333-9.6-21.333-21.333v-85.333h-85.333c-11.733 0-21.333-9.6-21.333-21.333s9.6-21.333 21.333-21.333h85.333v-85.333c0-11.733 9.6-21.333 21.333-21.333s21.333 9.6 21.333 21.333v85.333h85.333c11.733 0 21.333 9.6 21.333 21.333s-9.6 21.333-21.333 21.333zM826.923 343.211l-95.744 97.408c9.685 29.312 15.488 60.245 15.488 92.715 0 164.651-134.016 298.667-298.667 298.667s-298.667-134.016-298.667-298.667 134.016-298.667 298.667-298.667c32.512 0 63.488 5.845 92.715 15.531l102.272-101.803c25.643-21.589 57.515-33.408 89.771-33.408 73.685 0 133.589 59.904 133.589 133.589 0 35.84-13.995 69.461-39.424 94.635zM660.48 390.571l106.325-107.989c8.747-8.661 14.165-20.736 14.165-34.005 0-26.667-21.632-48.256-48.256-48.256-13.312 0-25.344 5.419-34.816 13.355l-107.179 107.136c27.563 18.603 51.243 42.283 69.76 69.76zM234.667 533.333c0 117.632 95.701 213.333 213.333 213.333s213.333-95.701 213.333-213.333-95.701-213.333-213.333-213.333-213.333 95.701-213.333 213.333z" />
<glyph unicode="&#xe936;" glyph-name="zoom-out" d="M554.667 512h-213.333c-11.733 0-21.333 9.6-21.333 21.333s9.6 21.333 21.333 21.333h213.333c11.733 0 21.333-9.6 21.333-21.333s-9.6-21.333-21.333-21.333zM826.923 343.211l-95.787 97.408c9.728 29.312 15.531 60.245 15.531 92.715 0 164.651-134.016 298.667-298.667 298.667s-298.667-134.016-298.667-298.667 134.016-298.667 298.667-298.667c32.469 0 63.488 5.845 92.715 15.531l102.272-101.803c25.643-21.589 57.515-33.408 89.771-33.408 73.685 0 133.589 59.904 133.589 133.589 0 35.84-13.995 69.461-39.424 94.635zM660.48 390.571l106.325-107.989c8.747-8.661 14.165-20.736 14.165-34.005 0-26.667-21.632-48.256-48.256-48.256-13.312 0-25.344 5.419-34.816 13.355l-107.179 107.136c27.563 18.603 51.243 42.283 69.76 69.76zM234.667 533.333c0 117.632 95.701 213.333 213.333 213.333s213.333-95.701 213.333-213.333-95.701-213.333-213.333-213.333-213.333 95.701-213.333 213.333z" />
<glyph unicode="&#xe937;" glyph-name="plus" d="M512 128c-70.571 0-128 57.429-128 128l2.261 130.261-129.493-2.261c-71.339 0-128.768 57.429-128.768 128s57.429 128 128 128l130.261 2.304-2.261 124.928c0 71.339 57.429 128.768 128 128.768s128-57.429 128-128l2.347-125.696 126.421-2.304c69.803 0 127.232-57.429 127.232-128s-57.429-128-128-128l-125.653 2.261-2.347-131.029c0-69.803-57.429-127.232-128-127.232zM469.333 469.333v-214.101c0-22.741 19.157-41.899 42.667-41.899s42.667 19.157 42.667 42.667v213.333h214.101c22.741 0 41.899 19.157 41.899 42.667s-19.157 42.667-42.667 42.667h-213.333v213.333c0 24.277-19.157 42.667-42.667 42.667s-42.667-19.157-42.667-42.667v-213.333h-213.333c-24.277 0-42.667-19.157-42.667-42.667s19.157-42.667 42.667-42.667h213.333z" />
<glyph unicode="&#xe938;" glyph-name="minus" d="M768 383.999h-512c-70.571 0-128 57.429-128 128s57.429 128 128 128h512c70.571 0 128-57.429 128-128s-57.429-128-128-128zM256 554.666c-23.509 0-42.667-19.157-42.667-42.667s19.157-42.667 42.667-42.667h512c23.509 0 42.667 19.157 42.667 42.667s-19.157 42.667-42.667 42.667h-512z" />
<glyph unicode="&#xe939;" glyph-name="flip" d="M868.694 514.646c0 93.679-30.713 166.181-99.611 235.005-11.603 11.603-25.381 20.011-40.288 25.607l-174.705 174.705c-21.251 21.288-49.561 33.004-79.636 33.004s-58.385-11.715-79.636-33.004c-21.288-21.251-33.004-49.561-33.004-79.636 0-10.4 1.39-20.613 4.129-30.374-38.636-17.308-74.117-42.053-106.144-74.117-67.397-67.321-104.491-156.871-104.491-252.2 0-93.679 30.713-166.181 99.611-235.005 11.227-11.188 24.48-19.562 38.822-25.118l176.168-176.207c21.251-21.288 49.561-33.004 79.636-33.004s58.385 11.715 79.636 33.004c21.288 21.251 33.004 49.561 33.004 79.636 0 10.739-1.503 21.251-4.392 31.315 38.709 17.308 74.267 42.090 106.37 74.154 67.434 67.358 104.531 156.945 104.531 252.24zM525.893 233.646l50.199-50.163c14.682-14.682 14.682-38.41 0-53.092-7.321-7.321-16.933-11.001-26.544-11.001s-19.223 3.68-26.544 11.001l-139.184 139.184 139.184 139.184c7.321 7.321 16.933 11.001 26.544 11.001s19.223-3.68 26.544-11.001c14.682-14.682 14.682-38.41 0-53.092l-46.821-46.821c50.725 3.418 91.050 22.152 128.711 59.811 39.012 38.973 60.489 90.827 60.489 145.981 0 53.391-15.057 88.273-55.569 128.748-14.682 14.682-14.682 38.41 0 53.128 7.321 7.321 16.933 11.001 26.584 11.001 9.612 0 19.223-3.68 26.544-10.965 54.368-54.329 77.571-108.735 77.571-181.876 0-75.244-29.287-145.943-82.489-199.111-52.191-52.191-113.016-78.848-185.218-81.927zM497.132 794.557l-49.225 49.225c-14.682 14.682-14.682 38.41 0 53.092 7.321 7.321 16.933 11.001 26.544 11.001s19.223-3.68 26.544-11.001l139.184-139.184-139.184-139.184c-7.321-7.321-16.933-11.001-26.544-11.001s-19.223 3.68-26.544 11.001c-14.682 14.682-14.682 38.41 0 53.092l47.872 47.872c-51.25-3.228-91.914-21.926-129.762-59.811-39.048-39.012-60.526-90.863-60.526-146.020 0-53.391 15.057-88.273 55.569-128.748 14.682-14.682 14.682-38.41 0-53.128-7.321-7.321-16.972-11.001-26.584-11.001s-19.223 3.68-26.544 10.965c-54.329 54.368-77.535 108.773-77.535 181.913 0 75.244 29.287 145.943 82.489 199.111 51.888 51.928 112.377 78.585 184.24 81.814zM387.645 411.43c-33.341 33.303-44.605 59.099-44.605 102.201 0 45.132 17.571 87.559 49.488 119.436 2.365 2.327 4.655 4.581 7.022 6.721 1.24-18.060 8.86-34.919 21.813-47.835 14.193-14.193 33.041-22.003 53.092-22.003s38.899 7.81 53.092 22.003l87.821 87.821c-2.929-22.378 3.905-45.771 21.025-62.89 33.341-33.303 44.605-59.099 44.605-102.201 0-45.132-17.571-87.559-49.488-119.436-2.327-2.327-4.694-4.618-7.058-6.796-1.463 17.721-9.050 34.168-21.74 46.858-14.267 14.193-33.117 22.003-53.165 22.003s-38.899-7.81-53.092-22.003l-87.934-87.934c3.341 22.715-3.491 46.632-20.876 64.053z" />
<glyph unicode="&#xe93a;" glyph-name="drag" d="M913.281 564.402l-348.879 348.879c-14.49 14.49-33.427 21.718-52.402 21.718s-37.912-7.227-52.402-21.718l-348.879-348.879c-28.943-28.869-28.943-75.861 0-104.803l348.879-348.879c14.49-14.49 33.427-21.718 52.402-21.718s37.912 7.227 52.402 21.718l348.879 348.879c28.943 28.943 28.943 75.934 0 104.803zM697.298 363.761c-9.488 0-18.974 3.632-26.202 10.857-14.49 14.49-14.49 37.912 0 52.402l47.917 47.917h-169.956v-169.956l47.917 47.917c7.227 7.227 16.714 10.857 26.202 10.857s18.974-3.632 26.202-10.857c14.49-14.49 14.49-37.912 0-52.402l-137.379-137.379-137.379 137.379c-14.49 14.49-14.49 37.912 0 52.402 7.227 7.227 16.714 10.857 26.202 10.857s18.974-3.632 26.202-10.857l47.917-47.917v169.956h-169.956l47.917-47.917c14.49-14.49 14.49-37.912 0-52.402-7.227-7.227-16.714-10.857-26.202-10.857s-18.974 3.632-26.202 10.857l-137.379 137.379 137.379 137.379c7.227 7.227 16.714 10.857 26.202 10.857s18.974-3.632 26.202-10.857c14.49-14.49 14.49-37.912 0-52.402l-47.917-47.917h169.956v169.956l-47.917-47.917c-7.227-7.227-16.714-10.857-26.202-10.857s-18.974 3.632-26.202 10.857c-14.49 14.49-14.49 37.912 0 52.402l137.379 137.379 137.379-137.379c14.49-14.49 14.49-37.912 0-52.402-7.227-7.227-16.714-10.857-26.202-10.857s-18.974 3.632-26.202 10.857l-47.917 47.917v-169.956h169.956l-47.917 47.917c-14.49 14.49-14.49 37.912 0 52.402 7.227 7.227 16.714 10.857 26.202 10.857s18.974-3.632 26.202-10.857l137.379-137.379-137.379-137.379c-7.227-7.227-16.714-10.857-26.202-10.857zM633.111 437.881c-6.486-11.154-9.932-23.829-9.932-37.060-13.231 0-25.905-3.446-37.060-9.932v46.991h46.991zM390.889 437.881h46.991v-46.991c-11.154 6.486-23.829 9.932-37.060 9.932 0 13.231-3.446 25.905-9.932 37.060zM390.889 586.119c6.486 11.154 9.932 23.829 9.932 37.060 13.231 0 25.905 3.446 37.060 9.932v-46.991h-46.991zM633.111 586.119h-46.991v46.991c11.154-6.486 23.829-9.932 37.060-9.932 0-13.231 3.446-25.905 9.932-37.060z" />
<glyph unicode="&#xe93b;" glyph-name="sort" d="M295.248 666.611c0 29.685 11.563 57.629 32.575 78.604l189.783 189.783 189.783-189.783c42.026-41.987 42.026-115.329-0.037-157.245-43.286-43.322-113.846-43.322-157.168 0.037l-32.575 32.538-32.575-32.538c-43.322-43.359-113.883-43.359-157.207 0-21.012 20.902-32.575 48.847-32.575 78.604zM517.606 830.192l-137.379-137.379c-14.047-14.083-13.97-38.505-0.037-52.365 14.49-14.49 37.985-14.49 52.438-0.037l84.977 84.94 84.977-84.94c14.453-14.453 37.949-14.453 52.402 0 14.047 14.009 13.97 38.395 0 52.402l-137.379 137.379zM295.248 357.389c0 29.758 11.563 57.702 32.612 78.641 43.286 43.322 113.846 43.322 157.168-0.037l32.575-32.538 32.575 32.538c43.322 43.359 113.883 43.359 157.207 0 41.987-41.841 42.026-115.218 0-157.207l-189.783-189.783-189.783 189.783c-21.012 20.975-32.575 48.919-32.575 78.604zM665.845 357.425c0 9.895-3.855 19.197-10.821 26.126-14.49 14.49-37.985 14.49-52.438 0.037l-84.977-84.94-84.977 84.94c-14.453 14.453-37.949 14.453-52.402 0-14.009-13.97-14.047-38.358 0-52.402l137.379-137.379 137.379 137.379c7.005 7.042 10.857 16.344 10.857 26.239z" />
<glyph unicode="&#xe93c;" glyph-name="configure" d="M362.667 341.333c0-23.564-19.103-42.667-42.667-42.667s-42.667 19.103-42.667 42.667c0 23.564 19.103 42.667 42.667 42.667s42.667-19.103 42.667-42.667zM863.275 825.301c-16.725 16.128-43.221 16.085-59.691-0.384 16.512 16.469 16.555 43.008 0.427 59.733-45.995 33.792-102.613 54.016-164.011 54.016-153.173 0-277.333-124.16-277.333-277.333 0-5.504 0.981-10.752 1.323-16.171-14.379-10.197-123.435-91.605-181.675-140.843-48.427-42.24-75.648-101.333-75.648-162.987 0-117.632 95.701-213.333 213.333-213.333 62.507 0 121.771 27.733 162.603 76.117 50.048 58.667 131.413 167.381 141.525 180.437 5.12 0.427 10.368-0.555 15.872-0.555 153.173 0 277.333 124.16 277.333 277.333 0 61.44-20.224 118.016-54.059 163.968zM320 213.333c-70.656 0-128 57.301-128 128 0 39.253 18.048 73.899 45.397 97.792 101.035 85.419 154.325 117.248 218.24 171.307-4.48 16.299-7.637 33.152-7.637 50.901 0 106.027 85.973 192 192 192 20.053 0 38.997-3.925 57.131-9.643l-121.131-118.357 21.333-106.667 106.667-21.333 119.68 116.949c4.907-16.896 8.32-34.432 8.32-52.949 0-106.027-85.973-192-192-192-17.749 0-34.603 3.157-50.901 7.68-54.059-63.915-85.888-117.248-171.691-217.813-23.509-27.819-58.155-45.867-97.408-45.867zM805.718 756.437l-115.413-112.853-56.704 11.349-11.221 56.064 116.309 113.621c27.776-16.768 50.773-40.064 67.029-68.181z" />
<glyph unicode="&#xe93d;" glyph-name="settings" d="M576 810.667l36.48-145.92 144.597 41.429 64.043-110.933-108.16-104.491 108.16-104.576-64-110.933-144.64 41.429-36.48-146.005h-128l-36.48 146.005-144.64-41.429-64.043 110.933 108.16 104.576-108.117 104.491 64 110.933 144.64-41.429 36.48 145.92h128zM576 896h-128c-39.168 0-73.301-26.667-82.731-64.683l-15.104-60.245-59.733 17.067c-7.851 2.261-15.744 3.328-23.552 3.328-29.867 0-58.368-15.787-73.856-42.667l-64-110.933c-19.584-33.963-13.525-76.885 14.592-104.021l44.672-43.136-44.715-43.307c-28.16-27.179-34.219-70.101-14.635-104.021l64.085-110.933c15.488-26.923 43.989-42.667 73.856-42.667 7.808 0 15.701 1.067 23.552 3.243l59.691 17.109 15.104-60.373c9.472-37.76 43.605-64.427 82.773-64.427h128c39.168 0 73.301 26.667 82.731 64.683l15.104 60.331 59.691-17.067c7.851-2.261 15.744-3.285 23.552-3.285 29.867 0 58.368 15.787 73.856 42.667l64 110.933c19.584 33.963 13.525 76.8-14.592 104.021l-44.672 43.221 44.672 43.221c28.16 27.179 34.176 70.144 14.592 104.021l-64 110.933c-15.573 26.923-43.989 42.667-73.899 42.667-7.851 0-15.701-1.067-23.509-3.243l-59.733-17.109-15.104 60.288c-9.387 37.717-43.52 64.384-82.688 64.384zM512 576c47.104 0 85.333-38.187 85.333-85.333 0-47.104-38.229-85.333-85.333-85.333s-85.333 38.229-85.333 85.333c0 47.147 38.229 85.333 85.333 85.333zM512 618.667c-70.571 0-128-57.429-128-128s57.429-128 128-128 128 57.429 128 128-57.429 128-128 128z" />
<glyph unicode="&#xe93e;" glyph-name="flag" d="M784.341 797.099c-15.957 6.613-34.304 2.944-46.507-9.259-53.931-53.888-141.696-53.931-195.669 0-87.253 87.168-229.12 87.168-316.331 0-8.021-7.979-12.501-18.859-12.501-30.165v-554.667c0-23.552 19.115-42.667 42.667-42.667s42.667 19.115 42.667 42.667v194.261c54.229 42.539 133.163 38.869 183.168-11.093 87.253-87.168 229.163-87.168 316.331 0 8.021 8.021 12.501 18.859 12.501 30.165v341.333c0 17.28-10.411 32.811-26.325 39.424zM481.835 727.51c65.707-65.664 162.475-81.835 243.499-48.555v-98.603c-61.696-39.083-144.512-31.957-198.229 21.76-61.781 61.739-153.515 74.368-228.437 39.552v96.939c54.229 42.539 133.163 38.912 183.168-11.093zM542.165 446.55c-43.605 43.563-100.907 65.365-158.165 65.365-29.056 0-58.069-5.589-85.333-16.811v98.603c61.696 39.083 144.512 31.957 198.229-21.76 39.467-39.424 91.264-59.136 143.104-59.136 29.312 0 58.283 6.997 85.333 19.584v-96.939c-54.272-42.539-133.205-38.869-183.168 11.093z" />
<glyph unicode="&#xe93f;" glyph-name="world" d="M512 896.001c-212.096 0-384-171.904-384-384s171.904-384 384-384 384 171.904 384 384-171.904 384-384 384zM512 640.001c0 23.595 19.072 42.667 42.667 42.667s42.667-19.072 42.667-42.667v-128c-23.552 0-42.667-19.115-42.667-42.667s19.115-42.667 42.667-42.667c23.595 0 42.667 19.115 42.667 42.667h42.667v85.333l42.667-42.667-42.667-42.667c0-128 0-128-85.333-170.667 0 42.667-42.667 42.667-128 42.667v85.333l-85.333 85.333v85.333c-42.667 0-42.667-42.667-42.667-42.667l-94.421 94.379c49.792 95.872 149.845 161.621 265.088 161.621 29.355 0 57.728-4.437 84.523-12.373-3.669-38.187-24.704-72.96-63.189-72.96-42.667 0-64-42.667-64-85.333s0-128 0-128 42.667 0 42.667 128zM512 213.334c-164.651 0-298.667 133.973-298.667 298.667 0 33.109 5.675 64.896 15.659 94.677l197.675-197.675v-67.669c0-23.552 19.072-42.667 42.667-42.667 33.237 0 70.443 0 85.589-3.883 1.621-12.843 8.917-24.832 19.968-31.659 7.168-4.437 15.36-6.827 23.552-6.827 6.187 0 12.331 1.365 18.005 4.181 100.181 50.091 108.331 70.144 108.885 191.104l30.208 30.208c16.683 16.683 16.683 43.648 0 60.331l-42.667 42.667c-8.192 8.192-19.115 12.544-30.208 12.544-5.504 0-11.051-1.067-16.341-3.243-15.915-6.613-26.325-22.187-26.325-39.424v85.333c0 29.397-14.976 55.381-37.675 70.741 17.963 17.536 30.379 42.453 35.243 71.893 102.059-47.573 173.099-150.827 173.099-270.635 0-164.693-134.016-298.667-298.667-298.667z" />
<glyph unicode="&#xe940;" glyph-name="bookmark" d="M682.667 896.002h-341.333c-70.571 0-128-57.429-128-128v-597.333c0-21.931 4.437-40.363 13.141-54.827 24.064-39.893 77.44-43.008 120.021-0.341l135.339 135.339c16 15.957 44.331 15.957 60.331 0l135.339-135.339c20.949-20.949 42.752-31.573 64.853-31.573 34.005 0 68.309 26.837 68.309 86.741v597.333c0 70.571-57.429 128-128 128zM341.334 810.668h341.333c23.509 0 42.667-19.157 42.667-42.667v-422.613l-104.576 95.872c-59.989 54.997-157.568 54.955-217.557 0l-104.533-95.872v422.613c0 23.509 19.157 42.667 42.667 42.667zM602.497 311.17c-24.107 24.107-56.235 37.376-90.496 37.376s-66.389-13.312-90.496-37.376l-122.837-122.837v99.157l133.376 122.283c44.075 40.405 115.797 40.405 159.872 0l133.419-122.283v-99.157l-122.837 122.837z" />
<glyph unicode="&#xe941;" glyph-name="mail" d="M810.667 810.665h-597.333c-47.104 0-85.333-38.229-85.333-85.333v-384c0-47.104 38.229-85.333 85.333-85.333h597.333c47.104 0 85.333 38.229 85.333 85.333v384c0 47.104-38.229 85.333-85.333 85.333zM397.483 498.516l68.352-59.733c13.013-11.349 29.483-16.981 46.165-16.981s33.152 5.675 46.165 16.981l68.352 59.733-1.579-1.579 155.563-155.563h-537.003l155.563 155.563-1.579 1.579zM213.333 371.497v288.128l153.685-134.443-153.685-153.685zM656.981 525.183l153.685 134.443v-288l-153.685 153.557zM810.667 725.332v-8.96l-280.576-245.504c-9.685-8.448-26.496-8.448-36.181 0l-280.576 245.504v8.96h597.333z" />
<glyph unicode="&#xe942;" glyph-name="message" d="M768 725.333c23.125 0 42.667-19.541 42.667-42.667v-298.667c0-23.125-19.541-42.667-42.667-42.667h-376.704l-7.296-7.296v7.296h-128c-23.125 0-42.667 19.541-42.667 42.667v298.667c0 23.125 19.541 42.667 42.667 42.667h512zM768 810.667h-512c-70.4 0-128-57.6-128-128v-298.667c0-70.4 57.6-128 128-128h42.667v-128l128 128h341.333c70.4 0 128 57.6 128 128v298.667c0 70.4-57.6 128-128 128z" />
<glyph unicode="&#xe943;" glyph-name="lightbulb" d="M512 746.667c-11.776 0-21.333-9.557-21.333-21.333s9.557-21.333 21.333-21.333c46.208 0 83.797-37.589 83.797-83.797 0-11.776 9.557-21.333 21.333-21.333s21.333 9.557 21.333 21.333c0 69.717-56.747 126.464-126.464 126.464zM512 938.667c-176.469 0-320-143.531-320-320 0-63.403 18.773-124.672 54.357-177.707 0.981-2.005 2.091-3.925 3.413-5.76 77.867-111.189 91.563-146.347 91.563-179.2v-128c0-23.552 19.115-42.667 42.667-42.667h85.333c0-11.093 4.693-22.187 12.373-30.293 8.107-7.68 19.2-12.373 30.293-12.373s22.187 4.693 30.293 12.373c7.68 8.107 12.373 19.2 12.373 30.293h85.333c23.552 0 42.667 19.115 42.667 42.667v128c0 33.365 13.611 68.693 90.965 179.157 38.187 54.4 58.368 117.845 58.368 183.509 0 176.469-143.531 320-320 320zM597.334 170.667h-170.667v42.667h170.667v-42.667zM703.787 484.139c-62.549-89.301-91.435-140.331-101.76-185.472h-47.36v85.333c0 23.552-19.115 42.667-42.667 42.667s-42.667-19.115-42.667-42.667v-85.333h-47.488c-10.24 43.947-38.315 93.867-98.389 180.053-0.939 1.877-2.048 3.712-3.285 5.504-28.032 39.851-42.837 86.357-42.837 134.443 0 129.408 105.259 234.667 234.667 234.667s234.667-105.259 234.667-234.667c0-48.043-14.805-94.549-42.88-134.528z" />
<glyph unicode="&#xe944;" glyph-name="gift" d="M853.333 704h-100.352c9.344 19.499 15.019 41.003 15.019 64 0 82.347-66.987 149.333-149.333 149.333-41.771 0-79.531-17.365-106.667-45.141-27.136 27.776-64.896 45.141-106.667 45.141-82.347 0-149.333-66.987-149.333-149.333 0-22.997 5.675-44.501 15.019-64h-100.352c-23.595 0-42.667-19.115-42.667-42.667v-170.667c0-23.552 19.072-42.667 42.667-42.667v-213.333c0-70.571 57.429-128 128-128h426.667c70.571 0 128 57.429 128 128v213.333c23.595 0 42.667 19.115 42.667 42.667v170.667c0 23.552-19.072 42.667-42.667 42.667zM810.666 533.333h-213.333v85.333h213.333v-85.333zM469.333 746.666h85.333v-42.667h-85.333v42.667zM554.666 618.666v-85.333h-85.333v85.333h85.333zM618.666 832c35.285 0 64-28.715 64-64s-28.715-64-64-64c-7.552 0-14.677 1.664-21.333 4.139v38.528c0 22.229-17.237 39.979-38.955 41.899 8.619 25.173 32.256 43.435 60.288 43.435zM341.333 768c0 35.285 28.715 64 64 64 28.032 0 51.669-18.261 60.288-43.435-21.717-1.92-38.955-19.669-38.955-41.899v-38.528c-6.656-2.475-13.781-4.139-21.333-4.139-35.285 0-64 28.715-64 64zM426.666 618.666v-85.333h-213.333v85.333h213.333zM298.666 192c-23.509 0-42.667 19.157-42.667 42.667v256h170.667v-298.667h-128zM469.333 192v298.667h85.333v-298.667h-85.333zM725.333 192h-128v298.667h170.667v-256c0-23.509-19.157-42.667-42.667-42.667z" />
<glyph unicode="&#xe945;" glyph-name="glass" d="M749.568 621.568c0 108.8-38.656 238.592-40.277 244.053-5.461 18.048-22.059 30.379-40.875 30.379h-312.832c-18.816 0-35.413-12.331-40.875-30.379-1.621-5.461-40.277-135.253-40.277-244.053 0-116.693 84.651-213.803 195.712-233.685-0.128-1.28-0.811-2.517-0.811-3.883v-170.667h-42.667c-23.595 0-42.667-19.072-42.667-42.667s19.072-42.667 42.667-42.667h170.667c23.595 0 42.667 19.072 42.667 42.667s-19.072 42.667-42.667 42.667h-42.667v170.667c0 1.365-0.683 2.603-0.811 3.925 111.061 19.883 195.712 116.949 195.712 233.643zM512 469.333c-75.648 0-138.069 55.595-149.803 128h299.563c-11.691-72.405-74.112-128-149.76-128zM360.32 640c2.645 62.635 18.005 131.968 27.861 170.667h247.595c9.856-38.699 25.216-108.032 27.861-170.667h-303.317z" />
<glyph unicode="&#xe946;" glyph-name="book" d="M768.001 896h-469.333c-70.571 0-128-57.429-128-128v-42.667h-42.667c-23.595 0-42.667-19.115-42.667-42.667s19.072-42.667 42.667-42.667h42.667v-85.333h-42.667c-23.595 0-42.667-19.115-42.667-42.667s19.072-42.667 42.667-42.667h42.667v-85.333h-42.667c-23.595 0-42.667-19.115-42.667-42.667s19.072-42.667 42.667-42.667h42.667v-42.667c0-70.571 57.429-128 128-128h469.333c70.571 0 128 57.429 128 128v512c0 70.571-57.429 128-128 128zM256.001 768c0 23.509 19.157 42.667 42.667 42.667v-85.333h-42.667v42.667zM256.001 640h42.667v-85.333h-42.667v85.333zM256.001 469.333h42.667v-85.333h-42.667v85.333zM256.001 256v42.667h42.667v-85.333c-23.509 0-42.667 19.157-42.667 42.667zM810.667 256c0-23.509-19.157-42.667-42.667-42.667h-426.667v597.333h426.667c23.509 0 42.667-19.157 42.667-42.667v-512zM640.001 576c0-47.128-38.205-85.333-85.333-85.333s-85.333 38.205-85.333 85.333c0 47.128 38.205 85.333 85.333 85.333s85.333-38.205 85.333-85.333zM554.667 454.144c-66.645 0-106.667-30.507-106.667-60.971 0-15.232 40.021-30.507 106.667-30.507 62.549 0 106.667 15.232 106.667 30.507 0 30.464-41.813 60.971-106.667 60.971z" />
<glyph unicode="&#xe947;" glyph-name="clipboard" d="M725.333 896h-426.667c-70.571 0-128-57.429-128-128v-512c0-70.571 57.429-128 128-128h426.667c70.571 0 128 57.429 128 128v512c0 70.571-57.429 128-128 128zM384 810.667h256v-42.667c0-23.509-19.157-42.667-42.667-42.667h-170.667c-23.509 0-42.667 19.157-42.667 42.667v42.667zM768 256c0-23.509-19.157-42.667-42.667-42.667h-426.667c-23.509 0-42.667 19.157-42.667 42.667v512c0 23.509 19.157 42.667 42.667 42.667h42.667c0-11.179 0-25.643 0-42.667 0-46.933 38.4-85.333 85.333-85.333h170.667c46.933 0 85.333 38.4 85.333 85.333 0 17.024 0 31.488 0 42.667h42.667c23.509 0 42.667-19.157 42.667-42.667v-512zM682.667 298.667h-341.333c-11.776 0-21.333 9.557-21.333 21.333s9.557 21.333 21.333 21.333h341.333c11.776 0 21.333-9.557 21.333-21.333s-9.557-21.333-21.333-21.333zM682.667 426.667h-341.333c-11.776 0-21.333 9.557-21.333 21.333s9.557 21.333 21.333 21.333h341.333c11.776 0 21.333-9.557 21.333-21.333s-9.557-21.333-21.333-21.333zM682.667 554.667h-341.333c-11.776 0-21.333 9.557-21.333 21.333s9.557 21.333 21.333 21.333h341.333c11.776 0 21.333-9.557 21.333-21.333s-9.557-21.333-21.333-21.333z" />
<glyph unicode="&#xe948;" glyph-name="user" d="M512 768c70.571 0 128-57.429 128-128s-57.429-128-128-128-128 57.429-128 128 57.429 128 128 128zM512 853.333c-117.931 0-213.333-95.488-213.333-213.333s95.403-213.333 213.333-213.333 213.333 95.488 213.333 213.333-95.403 213.333-213.333 213.333zM512 298.667c86.229 0 140.843-32.896 161.408-61.653-29.141-11.093-84.011-23.68-161.408-23.68-84.651 0-136.789 13.013-162.901 23.125 19.584 30.507 75.819 62.208 162.901 62.208zM512 384c-160 0-256-85.333-256-170.667 0-42.667 96-85.333 256-85.333 150.101 0 256 42.667 256 85.333s-100.437 170.667-256 170.667z" />
<glyph unicode="&#xe949;" glyph-name="file-pdf" horiz-adv-x="1027" d="M813.518 733.145q12-12 20.571-32.574t8.573-37.716v-493.716q0-17.148-12-29.143t-29.143-12h-576q-17.148 0-29.143 12t-12 29.143v685.716q0 17.148 12 29.143t29.143 12h384.006q17.148 0 37.716-8.573t32.574-20.571zM623.238 837.724v-161.148h161.148q-4.286 12.432-9.427 17.573l-134.148 134.148q-5.142 5.142-17.573 9.427zM787.808 182.866v438.857h-178.284q-17.148 0-29.143 12t-12 29.143v178.284h-329.142v-658.284h548.573zM567.522 437.008q14.142-11.143 36-24.006 25.284 3 50.142 3 63 0 75.864-21 6.857-9.427 0.858-22.286 0-0.427-0.427-0.858l-0.858-0.858v-0.427q-2.571-16.284-30.432-16.284-20.571 0-49.286 8.573t-55.716 22.714q-94.714-10.29-168.006-35.573-65.571-112.286-103.714-112.286-6.429 0-12 3l-10.29 5.142q-0.427 0.427-2.571 2.143-4.286 4.286-2.571 15.429 3.864 17.148 24.006 39.216t56.571 41.358q6.006 3.864 9.858-2.571 0.858-0.858 0.858-1.716 22.286 36.427 45.858 84.432 29.143 58.286 44.573 112.286-10.29 35.148-13.073 68.358t2.784 54.642q4.714 17.148 18 17.148h9.427q9.858 0 15.006-6.429 7.716-9 3.864-29.143-0.858-2.571-1.716-3.432 0.427-1.29 0.427-3.432v-12.864q-0.858-52.716-6.006-82.29 23.574-70.284 62.573-102zM320.66 260.86q22.286 10.29 58.714 67.714-21.864-17.148-37.506-36t-21.216-31.714zM491.236 655.151q-6.429-18-0.858-56.571 0.427 3 3 18.858 0 1.29 3 18.427 0.427 1.716 1.716 3.432-0.427 0.427-0.427 0.858t-0.214 0.642-0.214 0.642q-0.427 9.427-5.574 15.429 0-0.427-0.427-0.858v-0.858zM438.092 371.866q57.864 23.142 121.714 34.716-0.858 0.427-5.574 4.073t-6.857 5.79q-32.574 28.716-54.427 75.432-11.571-36.858-35.573-84.432-12.864-24.006-19.29-35.573zM714.95 378.724q-10.29 10.29-60.006 10.29 32.574-12 53.148-12 6.006 0 7.716 0.427 0 0.427-0.858 1.29z" />
<glyph unicode="&#xe94a;" glyph-name="file-word" horiz-adv-x="1027" d="M813.519 733.144q11.999-11.999 20.571-32.569t8.573-37.716v-493.715q0-17.147-11.995-29.143t-29.143-11.999h-576q-17.143 0-29.143 11.999t-11.999 29.143v685.716q0 17.147 11.999 29.143t29.143 11.995h384.004q17.147 0 37.716-8.573t32.569-20.571zM623.239 837.723v-161.147h161.147q-4.286 12.427-9.427 17.573l-134.147 134.143q-5.141 5.141-17.573 9.427zM787.809 182.866v438.857h-178.284q-17.147 0-29.143 11.999t-11.999 29.143v178.284h-329.141v-658.284h548.573zM284.237 566.86v-45.857h29.999l70.284-283.286h68.141l54.853 207.853q2.999 8.573 4.286 19.716 0.853 6.857 0.853 10.285h1.716l1.285-10.285q0.427-1.285 1.501-8.573t2.357-11.143l54.853-207.853h68.141l70.284 283.286h29.995v45.857h-128.571v-45.857h38.571l-42.429-187.711q-2.143-8.573-2.999-19.716l-0.853-9h-1.716l-1.285 9q-0.427 2.143-1.716 9t-2.143 10.716l-61.715 233.573h-48.859l-61.715-233.573q-0.853-3.863-1.929-10.501t-1.501-9.214l-1.716-9h-1.716l-0.853 9q-0.857 11.143-2.999 19.716l-42.429 187.715h38.571v45.857h-128.571z" />
<glyph unicode="&#xe94b;" glyph-name="file-excel" horiz-adv-x="1027" d="M813.524 733.142q11.999-11.999 20.571-32.573t8.573-37.716v-493.715q0-17.147-11.999-29.143t-29.143-11.999h-576q-17.147 0-29.143 11.999t-11.999 29.143v685.716q0 17.147 11.999 29.143t29.143 11.999h384.005q17.147 0 37.716-8.573t32.573-20.571zM623.239 837.721v-161.147h161.147q-4.286 12.431-9.427 17.573l-134.147 134.147q-5.141 5.141-17.573 9.427zM787.809 182.859v438.857h-178.284q-17.147 0-29.143 11.999t-11.999 29.143v178.284h-329.141v-658.284h548.573zM368.24 283.142v-45.427h120.431v45.427h-32.141l44.147 69.005q2.143 2.999 4.286 7.071t3.215 5.789 1.505 1.716h0.857q0.427-1.716 2.143-4.286 0.857-1.716 1.929-3.215t2.571-3.431 2.784-3.647l45.857-69.005h-32.573v-45.427h124.715v45.427h-29.143l-82.289 117 83.571 120.863h28.716v45.857h-119.571v-45.857h31.714l-44.147-68.141q-1.716-2.999-4.286-7.071t-3.863-5.789l-0.857-1.289h-0.857q-0.427 1.716-2.143 4.286-2.571 4.714-7.284 9.857l-45.427 68.141h32.573v45.857h-124.284v-45.857h29.143l81-116.573-83.143-121.286h-29.143z" />
<glyph unicode="&#xe94c;" glyph-name="file-powerpoint" horiz-adv-x="1027" d="M813.524 733.142q11.999-11.999 20.571-32.573t8.573-37.716v-493.715q0-17.147-11.999-29.143t-29.143-11.999h-576q-17.147 0-29.143 11.999t-11.999 29.143v685.716q0 17.147 11.999 29.143t29.143 11.999h384.005q17.147 0 37.716-8.573t32.573-20.571zM623.239 837.721v-161.147h161.147q-4.286 12.431-9.427 17.573l-134.147 134.147q-5.141 5.141-17.573 9.427zM787.809 182.859v438.857h-178.284q-17.147 0-29.143 11.999t-11.999 29.143v178.284h-329.141v-658.284h548.573zM362.666 283.142v-45.427h140.141v45.427h-39.863v71.573h58.714q32.573 0 50.573 6.429 28.716 9.857 45.641 37.289t16.931 62.573q0 34.715-15.857 60.429t-42.857 37.289q-20.571 8.147-55.716 8.147h-157.714v-45.857h39.431v-237.863h-39.431zM513.951 403.143h-51.005v114.857h51.429q22.286 0 35.573-7.715 24.005-14.141 24.005-49.286 0-38.143-26.573-51.429-13.286-6.429-33.429-6.429z" />
<glyph unicode="&#xe94d;" glyph-name="file-image" horiz-adv-x="1027" d="M813.524 733.142q11.999-11.999 20.571-32.573t8.573-37.716v-493.715q0-17.147-11.999-29.143t-29.143-11.999h-576q-17.147 0-29.143 11.999t-11.999 29.143v685.716q0 17.147 11.999 29.143t29.143 11.999h384.005q17.147 0 37.716-8.573t32.573-20.571zM623.239 837.721v-161.147h161.147q-4.286 12.431-9.427 17.573l-134.147 134.147q-5.141 5.141-17.573 9.427zM787.809 182.859v438.857h-178.284q-17.147 0-29.143 11.999t-11.999 29.143v178.284h-329.141v-658.284h548.573zM732.956 374.858v-137.143h-438.857v82.289l82.289 82.289 54.857-54.857 164.571 164.571zM376.38 457.143q-34.284 0-58.286 24.005t-24.005 58.286 24.005 58.286 58.286 24.005 58.286-24.005 24.005-58.286-24.005-58.286-58.286-24.005z" />
<glyph unicode="&#xe94e;" glyph-name="file-archive" horiz-adv-x="1027" d="M458.672 731.431v54.857h-54.857v-54.857h54.857zM513.523 676.572v54.857h-54.857v-54.857h54.857zM458.672 621.721v54.857h-54.857v-54.857h54.857zM513.523 566.857v54.857h-54.857v-54.857h54.857zM813.524 733.142q11.999-11.999 20.571-32.573t8.573-37.716v-493.715q0-17.147-11.999-29.143t-29.143-11.999h-576q-17.147 0-29.143 11.999t-11.999 29.143v685.716q0 17.147 11.999 29.143t29.143 11.999h384.005q17.147 0 37.716-8.573t32.573-20.571zM623.239 837.721v-161.147h161.147q-4.286 12.431-9.427 17.573l-134.147 134.147q-5.141 5.141-17.573 9.427zM787.809 182.859v438.857h-178.284q-17.147 0-29.143 11.999t-11.999 29.143v178.284h-54.857v-54.857h-54.857v54.857h-219.431v-658.284h548.573zM519.098 491.858l45.857-149.573q3.431-11.571 3.431-22.286 0-35.573-31.073-58.927t-78.643-23.357-78.643 23.357-31.073 58.927q0 10.716 3.431 22.286 9 27 51.429 169.715v54.857h54.857v-54.857h33.857q9.427 0 16.715-5.573t9.857-14.573zM458.672 292.569q22.714 0 38.784 8.147t16.071 19.289-16.071 19.289-38.784 8.147-38.784-8.147-16.071-19.289 16.071-19.289 38.784-8.147z" />
<glyph unicode="&#xe94f;" glyph-name="file-audio" horiz-adv-x="1027" d="M813.524 733.142q11.999-11.999 20.571-32.573t8.573-37.716v-493.715q0-17.147-11.999-29.143t-29.143-11.999h-576q-17.147 0-29.143 11.999t-11.999 29.143v685.716q0 17.147 11.999 29.143t29.143 11.999h384.005q17.147 0 37.716-8.573t32.573-20.571zM623.239 837.721v-161.147h161.147q-4.286 12.431-9.427 17.573l-134.147 134.147q-5.141 5.141-17.573 9.427zM787.809 182.859v438.857h-178.284q-17.147 0-29.143 11.999t-11.999 29.143v178.284h-329.141v-658.284h548.573zM450.096 531.721q8.573-3.431 8.573-12.863v-233.147q0-9.427-8.573-12.863-3.431-0.857-5.141-0.857-5.141 0-9.857 3.863l-71.147 71.573h-56.143q-6.005 0-9.857 3.863t-3.863 9.857v82.289q0 6.005 3.863 9.857t9.857 3.863h56.143l71.147 71.573q6.857 6.429 15.005 2.999zM628.808 236.427q13.286 0 21.431 10.289 55.289 68.141 55.289 155.571t-55.289 155.571q-6.857 9-18.427 10.289t-20.143-6.005q-9-7.284-10.073-18.641t6.216-20.357q42.857-52.715 42.857-120.863t-42.857-120.863q-7.284-9-6.216-20.357t10.073-18.214q7.715-6.429 17.147-6.429zM538.38 299.859q11.571 0 20.143 8.573 37.289 39.863 37.289 93.863t-37.289 93.863q-7.715 8.147-19.289 8.573t-19.716-7.284-8.573-19.073 7.715-19.929q22.286-24.429 22.286-56.143t-22.286-56.143q-8.147-8.573-7.715-19.929t8.573-19.073q8.573-7.284 18.857-7.284z" />
<glyph unicode="&#xe950;" glyph-name="file-video" horiz-adv-x="1027" d="M813.524 733.142q11.999-11.999 20.571-32.573t8.573-37.716v-493.715q0-17.147-11.999-29.143t-29.143-11.999h-576q-17.147 0-29.143 11.999t-11.999 29.143v685.716q0 17.147 11.999 29.143t29.143 11.999h384.005q17.147 0 37.716-8.573t32.573-20.571zM623.239 837.721v-161.147h161.147q-4.286 12.431-9.427 17.573l-134.147 134.147q-5.141 5.141-17.573 9.427zM787.809 182.859v438.857h-178.284q-17.147 0-29.143 11.999t-11.999 29.143v178.284h-329.141v-658.284h548.573zM513.523 566.857q22.286 0 38.571-16.284t16.284-38.571v-164.571q0-22.286-16.284-38.571t-38.571-16.284h-164.571q-22.286 0-38.571 16.284t-16.284 38.571v164.571q0 22.286 16.284 38.571t38.571 16.284h164.571zM724.382 566.001q8.573-3.431 8.573-12.863v-246.863q0-9.427-8.573-12.863-3.431-0.857-5.141-0.857-6.005 0-9.857 3.863l-113.573 114.005v38.571l113.573 114.005q3.863 3.863 9.857 3.863 1.716 0 5.141-0.857z" />
<glyph unicode="&#xe951;" glyph-name="file-code" horiz-adv-x="1027" d="M813.524 733.142q11.999-11.999 20.571-32.573t8.573-37.716v-493.715q0-17.147-11.999-29.143t-29.143-11.999h-576q-17.147 0-29.143 11.999t-11.999 29.143v685.716q0 17.147 11.999 29.143t29.143 11.999h384.005q17.147 0 37.716-8.573t32.573-20.571zM623.239 837.721v-161.147h161.147q-4.286 12.431-9.427 17.573l-134.147 134.147q-5.141 5.141-17.573 9.427zM787.809 182.859v438.857h-178.284q-17.147 0-29.143 11.999t-11.999 29.143v178.284h-329.141v-658.284h548.573zM390.094 566.857q3.431 4.714 9 5.357t10.289-2.784l21.863-16.284q4.714-3.431 5.357-9t-2.784-10.289l-78.005-104.141 78.005-104.141q3.431-4.714 2.784-10.289t-5.357-9l-21.863-16.284q-4.714-3.431-10.289-2.784t-9 5.357l-96.857 128.999q-6.005 8.147 0 16.284zM733.809 437.858q6.005-8.147 0-16.284l-96.857-128.999q-3.431-4.714-9-5.357t-10.289 2.784l-21.863 16.284q-4.714 3.431-5.357 9t2.784 10.289l78.005 104.141-78.005 104.141q-3.431 4.714-2.784 10.289t5.357 9l21.863 16.284q4.714 3.431 10.289 2.784t9-5.357zM468.096 240.285q-5.573 0.857-8.786 5.573t-2.357 10.289l59.141 356.141q0.857 5.573 5.573 8.786t10.289 2.357l27-4.286q5.573-0.857 8.786-5.573t2.357-10.289l-59.141-356.141q-0.857-5.573-5.573-8.786t-10.289-2.357z" />
<glyph unicode="&#xe952;" glyph-name="copyright" horiz-adv-x="1027" d="M699.976 425.119v-53.202q0-24.404-17.815-43.441t-45.881-29.527-57.595-15.862-57.351-5.366q-100.064 0-167.172 67.846t-67.117 168.881q0 99.083 66.38 165.461t165.461 66.38q16.594 0 36.852-2.196t45.394-8.786 45.148-16.594 33.674-27.581 13.666-39.536v-53.202q0-7.813-7.813-7.813h-57.595q-7.813 0-7.813 7.813v34.166q0 20.987-31.974 32.946t-67.117 11.955q-68.333 0-111.53-44.656t-43.197-115.923q0-73.702 44.656-121.778t113.971-48.078q33.19 0 67.358 11.709t34.166 32.215v34.166q0 3.42 2.196 5.612t5.12 2.196h58.081q2.928 0 5.366-2.196t2.44-5.612zM513.523 824.378q-63.453 0-121.291-24.888t-99.572-66.625-66.625-99.572-24.888-121.291 24.888-121.291 66.625-99.572 99.572-66.625 121.291-24.888 121.291 24.888 99.572 66.625 66.625 99.572 24.888 121.291-24.888 121.291-66.625 99.572-99.572 66.625-121.291 24.888zM888.381 512q0-102.010-50.274-188.162t-136.422-136.422-188.162-50.274-188.162 50.274-136.422 136.422-50.274 188.162 50.274 188.162 136.422 136.422 188.162 50.274 188.162-50.274 136.422-136.422 50.274-188.162z" />
<glyph unicode="&#xe953;" glyph-name="at" horiz-adv-x="1027" d="M613.094 571.058q0 52.714-26.113 82.486t-71.995 29.772q-30.75 0-60.522-14.888t-53.691-41.245-38.804-66.865-14.888-87.857q0-54.667 26.113-84.441t73.459-29.772q46.856 0 85.904 32.459t59.791 81.024 20.745 99.327zM888.38 511.998q0-54.183-18.059-96.155t-48.078-65.893-64.184-36.366-70.773-13.422q-2.928 0-7.562-0.244t-8.054-0.244q-46.369 0-69.312 25.87-13.666 16.102-16.102 40.508-25.384-32.219-64.184-53.691t-84.687-21.477q-78.584 0-121.775 46.612t-43.201 131.542q0 76.631 32.219 141.547t87.37 102.745 120.075 37.827q42.463 0 75.655-17.328t51.736-48.565l0.973 9.273 5.366 27.33q0.487 2.928 2.684 5.858t4.637 2.928h57.595q2.44 0 6.346-5.366 2.44-2.44 1.465-7.808l-58.576-299.689q-2.44-11.709-2.44-23.429 0-19.036 6.102-25.384t21.721-6.346q13.666 0.487 27.822 2.684t35.63 11.709 37.583 24.404 27.822 43.685 11.709 66.865q0 142.524-84.933 227.453t-227.453 84.933q-63.453 0-121.291-24.892t-99.57-66.624-66.624-99.57-24.892-121.291 24.892-121.291 66.624-99.57 99.57-66.624 121.291-24.892q111.285 0 197.679 70.286 5.366 4.393 11.709 3.905t10.255-5.858l20.012-23.917q3.905-5.858 3.42-11.709-0.973-6.346-5.858-10.738-49.786-40.508-111.039-62.477t-126.168-21.964q-76.147 0-145.452 29.772t-119.583 80.048-80.048 119.583-29.772 145.452 29.772 145.452 80.048 119.583 119.583 80.048 145.452 29.772q167.904 0 271.379-103.476t103.476-271.379z" />
<glyph unicode="&#xe954;" glyph-name="trademark" horiz-adv-x="1021" d="M468.807 666.285v-37.607q0-4.177-3.053-7.070t-7.232-2.893h-95.787v-261.002q0-4.177-2.893-7.232t-7.070-3.053h-43.393q-4.177 0-7.232 2.893t-3.053 7.394v261.002h-95.464q-4.177 0-7.232 2.893t-3.053 7.070v37.607q0 4.501 2.893 7.394t7.394 2.893h254.895q4.177 0 7.232-3.053t3.053-7.232zM802.451 667.25l24.752-308.895q0.32-4.177-2.573-7.714-3.213-3.213-7.394-3.213h-43.073q-3.857 0-6.75 2.733t-3.213 6.59l-14.785 189.001-60.75-136.609q-2.573-6.106-9.323-6.106h-38.571q-6.43 0-9.323 6.106l-60.431 137.251-14.464-189.645q-0.32-3.857-3.213-6.59t-6.75-2.733h-43.393q-4.177 0-7.394 3.213-2.893 3.213-2.893 7.714l25.071 308.895q0.32 3.857 3.213 6.59t6.75 2.733h45.643q6.43 0 9.323-6.106l70.715-167.144q3.213-7.714 6.43-16.393 0.964 2.249 3.053 7.874t3.375 8.519l71.038 167.144q2.893 6.106 9.323 6.106h45.321q4.177 0 7.070-2.733t3.213-6.59z" />
<glyph unicode="&#xe955;" glyph-name="registered" d="M574.573 594.716q0 37.716-25.715 51.857-14.141 7.715-50.141 7.715h-52.715v-120.426h69.429q28.289 0 43.715 15.857t15.429 45zM596.863 472.569l87.857-159.857q3.431-7.284-0.427-13.286-3.431-6.857-11.571-6.857h-65.143q-8.573 0-11.999 7.284l-83.143 156.426h-66.431v-150q0-6.005-3.863-9.857t-9.857-3.863h-57.431q-6.005 0-9.857 3.863t-3.863 9.857v411.429q0 6.005 3.863 9.857t9.857 3.863h126q54.857 0 81.427-10.289 36.427-13.286 57.431-46.716t20.999-77.141q0-39.431-18.214-70.931t-49.5-46.929q2.571-4.286 3.863-6.857zM512 827.427q-64.289 0-122.568-25.071t-100.5-67.286-67.286-100.5-25.071-122.568 25.071-122.568 67.286-100.5 100.5-67.286 122.568-25.071 122.568 25.071 100.5 67.286 67.286 100.5 25.071 122.568-25.071 122.568-67.286 100.5-100.5 67.286-122.568 25.071zM895.999 512q0-78.005-30.431-149.141t-81.857-122.568-122.568-81.857-149.141-30.431-149.141 30.431-122.568 81.857-81.857 122.568-30.431 149.141 30.431 149.141 81.857 122.568 122.568 81.857 149.141 30.431 149.141-30.431 122.568-81.857 81.857-122.568 30.431-149.141z" />
<glyph unicode="&#xe956;" glyph-name="creative-commons" d="M387.294 367.573q65.571 0 110.143 44.579 6.006 7.716 1.29 15.429l-19.283 35.147q-2.571 5.574-10.29 7.284-6.857 0.858-11.571-4.714l-1.722-1.29q-1.722-1.722-4.927-4.286t-7.5-5.574-10.074-6.222-12.216-5.79-14.358-4.073-16.071-1.506q-32.573 0-53.572 21.425t-20.993 54.427q0 32.573 20.571 53.786t52.284 21.209q15.857 0 30.641-6.006t21.641-12l6.857-6.006q4.714-4.714 11.143-4.286 6.857 0.858 10.29 6.006l22.714 33.429q5.574 8.573-0.858 16.716-1.29 1.722-4.714 5.142t-12.864 10.074-20.784 12-28.929 9.642-36.857 4.286q-63.427 0-105.435-41.357t-42.005-103.077q0-62.572 41.573-103.5t105.857-40.927zM657.286 367.573q65.571 0 110.143 44.579 6.006 7.716 1.722 15.429l-19.283 35.147q-3.432 6.006-10.722 7.284-6.857 0.858-11.571-4.714l-1.722-1.29q-1.722-1.722-4.927-4.286t-7.5-5.574-10.074-6.222-12.216-5.79-14.358-4.073-16.071-1.506q-32.573 0-53.572 21.425t-20.993 54.427q0 32.573 20.571 53.786t52.284 21.209q15.857 0 30.641-6.006t21.641-12l6.857-6.006q4.714-4.714 11.143-4.286 6.857 0.858 10.29 6.006l22.714 33.429q5.574 8.573-0.858 16.716-1.29 1.722-4.714 5.142t-12.864 10.074-20.784 12-28.929 9.642-36.857 4.286q-63 0-105.219-41.357t-42.221-103.077q0-62.572 41.573-103.5t105.857-40.927zM512 827.427q-64.288 0-122.564-25.071t-100.503-67.286-67.286-100.503-25.071-122.564 25.071-122.564 67.286-100.503 100.503-67.286 122.564-25.071 122.564 25.071 100.503 67.286 67.286 100.503 25.071 122.564-25.071 122.564-67.286 100.503-100.503 67.286-122.564 25.071zM512 895.999q78.004 0 149.141-30.425t122.564-81.856 81.856-122.564 30.425-149.141-30.425-149.141-81.856-122.564-122.564-81.856-149.141-30.425-149.141 30.425-122.564 81.856-81.856 122.564-30.425 149.141 30.425 149.141 81.856 122.564 122.564 81.856 149.141 30.425z" />
<glyph unicode="&#xe957;" glyph-name="diamond" horiz-adv-x="1021" d="M233.862 549.987l212.233-226.541-102.2 226.541h-110.033zM510.476 286.998l118.888 262.988h-237.781zM344.918 593.592l69.492 130.815h-89.252l-98.108-130.815h117.866zM574.862 323.446l212.233 226.541h-110.033zM394.314 593.592h232.331l-69.492 130.815h-93.339zM676.038 593.592h117.866l-98.108 130.815h-89.252zM724.069 759.149l130.815-174.419q4.769-6.131 4.431-14.138t-5.79-13.797l-327.035-348.836q-6.131-6.812-16.012-6.812t-16.012 6.812l-327.035 348.836q-5.453 5.79-5.79 13.797t4.431 14.138l130.815 174.419q6.131 8.855 17.371 8.855h392.44q11.243 0 17.371-8.855z" />
</font>
</defs>
</svg>
