<?xml version="1.0" standalone="no"?>
<!DOCTYPE svg PUBLIC "-//W3C//DTD SVG 1.1//EN" "http://www.w3.org/Graphics/SVG/1.1/DTD/svg11.dtd" >
<svg xmlns="http://www.w3.org/2000/svg">
<metadata>Generated by IcoMoon</metadata>
<defs>
<font id="icomoon" horiz-adv-x="1024">
<font-face units-per-em="1024" ascent="1024" descent="0" />
<missing-glyph horiz-adv-x="1024" />
<glyph unicode="&#x20;" horiz-adv-x="0" d="" />
<glyph unicode="&#xe900;" glyph-name="arrow-left" d="M854 554v-84h-520l238-240-60-60-342 342 342 342 60-60-238-240h520z" />
<glyph unicode="&#xe901;" glyph-name="arrow-right" d="M512 854l342-342-342-342-60 60 238 240h-520v84h520l-238 240z" />
<glyph unicode="&#xe902;" glyph-name="arrow-up" d="M170 512l342 342 342-342-62-60-238 238v-520h-84v520l-240-238z" />
<glyph unicode="&#xe903;" glyph-name="arrow-down" d="M854 512l-342-342-342 342 62 60 238-238v520h84v-520l240 238z" />
<glyph unicode="&#xe904;" glyph-name="chevron-left" d="M658 708l-196-196 196-196-60-60-256 256 256 256z" />
<glyph unicode="&#xe905;" glyph-name="chevron-right" d="M426 768l256-256-256-256-60 60 196 196-196 196z" />
<glyph unicode="&#xe906;" glyph-name="chevron-up" d="M316 366l-60 60 256 256 256-256-60-60-196 196z" />
<glyph unicode="&#xe907;" glyph-name="chevron-down" d="M316 690l196-196 196 196 60-60-256-256-256 256z" />
<glyph unicode="&#xe908;" glyph-name="link" d="M726 726c118 0 212-96 212-214s-94-214-212-214h-172v82h172c72 0 132 60 132 132s-60 132-132 132h-172v82h172zM342 470v84h340v-84h-340zM166 512c0-72 60-132 132-132h172v-82h-172c-118 0-212 96-212 214s94 214 212 214h172v-82h-172c-72 0-132-60-132-132z" />
<glyph unicode="&#xe909;" glyph-name="download" d="M726 470h-128v170h-172v-170h-128l214-214zM826 596c110-8 198-100 198-212 0-118-96-214-214-214h-554c-142 0-256 114-256 256 0 132 100 240 228 254 54 102 160 174 284 174 156 0 284-110 314-258z" />
<glyph unicode="&#xe90a;" glyph-name="open_in_new" d="M598 896h298v-298h-86v152l-418-418-60 60 418 418h-152v86zM810 214v298h86v-298c0-46-40-86-86-86h-596c-48 0-86 40-86 86v596c0 46 38 86 86 86h298v-86h-298v-596h596z" />
<glyph unicode="&#xe90b;" glyph-name="menu" d="M128 768h768v-86h-768v86zM128 470v84h768v-84h-768zM128 256v86h768v-86h-768z" />
<glyph unicode="&#xe90c;" glyph-name="close" d="M810 750l-238-238 238-238-60-60-238 238-238-238-60 60 238 238-238 238 60 60 238-238 238 238z" />
<glyph unicode="&#xe90d;" glyph-name="home" d="M426 170h-212v342h-128l426 384 426-384h-128v-342h-212v256h-172v-256z" />
<glyph unicode="&#xe90e;" glyph-name="info" d="M554 640v86h-84v-86h84zM554 298v256h-84v-256h84zM512 938c236 0 426-190 426-426s-190-426-426-426-426 190-426 426 190 426 426 426z" />
<glyph unicode="&#xe90f;" glyph-name="warning" d="M554 426v172h-84v-172h84zM554 256v86h-84v-86h84zM42 128l470 810 470-810h-940z" />
<glyph unicode="&#xe910;" glyph-name="folder" d="M426 854l86-86h342c46 0 84-40 84-86v-426c0-46-38-86-84-86h-684c-46 0-84 40-84 86v512c0 46 38 86 84 86h256z" />
<glyph unicode="&#xe911;" glyph-name="file" d="M554 640h236l-236 234v-234zM256 938h342l256-256v-512c0-46-40-84-86-84h-512c-46 0-86 38-86 84l2 684c0 46 38 84 84 84z" />
<glyph unicode="&#xe912;" glyph-name="attachement" d="M704 768h64v-490c0-130-104-236-234-236s-236 106-236 236v532c0 94 78 172 172 172s170-78 170-172v-448c0-58-48-106-106-106s-108 48-108 106v406h64v-406c0-24 20-42 44-42s42 18 42 42v448c0 58-48 108-106 108s-108-50-108-108v-532c0-94 78-172 172-172s170 78 170 172v490z" />
<glyph unicode="&#xe913;" glyph-name="power" d="M760 804c82-70 136-176 136-292 0-212-172-384-384-384s-384 172-384 384c0 116 54 222 136 292l60-60c-66-54-110-138-110-232 0-166 132-298 298-298s298 132 298 298c0 94-42 176-110 230zM554 896v-426h-84v426h84z" />
<glyph unicode="&#xe914;" glyph-name="lock" d="M768 170v428h-512v-428h512zM380 768v-86h264v86c0 72-60 132-132 132s-132-60-132-132zM768 682c46 0 86-38 86-84v-428c0-46-40-84-86-84h-512c-46 0-86 38-86 84v428c0 46 40 84 86 84h42v86c0 118 96 214 214 214s214-96 214-214v-86h42zM512 298c-46 0-86 40-86 86s40 86 86 86 86-40 86-86-40-86-86-86z" />
<glyph unicode="&#xe915;" glyph-name="unlock" d="M768 170v428h-512v-428h512zM768 682c46 0 86-38 86-84v-428c0-46-40-84-86-84h-512c-46 0-86 38-86 84v428c0 46 40 84 86 84h388v86c0 72-60 132-132 132s-132-60-132-132h-82c0 118 96 214 214 214s214-96 214-214v-86h42zM512 298c-46 0-86 40-86 86s40 86 86 86 86-40 86-86-40-86-86-86z" />
<glyph unicode="&#xe916;" glyph-name="rotate-left" d="M270 754l-100 100v-300h300l-138 138c46 46 110 76 180 76 142 0 256-114 256-256s-114-256-256-256c-112 0-208 70-242 170h-88c38-148 170-256 330-256 188 0 340 154 340 342s-152 342-340 342c-94 0-180-38-242-100z" />
<glyph unicode="&#xe917;" glyph-name="rotate-right" d="M754 754l100 100v-300h-300l138 138c-46 46-110 76-180 76-142 0-256-114-256-256s114-256 256-256c112 0 208 70 242 170h88c-38-148-170-256-330-256-188 0-340 154-340 342s152 342 340 342c94 0 180-38 242-100z" />
<glyph unicode="&#xe918;" glyph-name="clock" d="M534 726v-224l192-114-32-54-224 136v256h64zM512 170c188 0 342 154 342 342s-154 342-342 342-342-154-342-342 154-342 342-342zM512 938c236 0 426-190 426-426s-190-426-426-426-426 190-426 426 190 426 426 426z" />
<glyph unicode="&#xe919;" glyph-name="heart" d="M512 114l-62 56c-220 200-364 330-364 492 0 132 102 234 234 234 74 0 146-36 192-90 46 54 118 90 192 90 132 0 234-102 234-234 0-162-144-294-364-494z" />
<glyph unicode="&#xe91a;" glyph-name="ehart-o" d="M516 232c204 184 338 306 338 430 0 86-64 148-150 148-66 0-130-42-152-100h-80c-22 58-86 100-152 100-86 0-150-62-150-148 0-124 134-246 338-430l4-4zM704 896c132 0 234-102 234-234 0-162-144-292-364-492l-62-56-62 54c-220 200-364 332-364 494 0 132 102 234 234 234 74 0 146-36 192-90 46 54 118 90 192 90z" />
<glyph unicode="&#xe91b;" glyph-name="star" d="M512 288l-264-160 70 300-232 202 306 26 120 282 120-282 306-26-232-202 70-300z" />
<glyph unicode="&#xe91c;" glyph-name="start-o" d="M512 366l160-96-42 182 142 124-188 16-72 172-72-172-188-16 142-124-42-182zM938 630l-232-202 70-300-264 160-264-160 70 300-232 202 306 26 120 282 120-282z" />
<glyph unicode="&#xe91d;" glyph-name="thumbs-down" d="M810 896h172v-512h-172v512zM640 896c46 0 86-40 86-86v-426c0-24-10-44-26-60l-280-282-46 46c-12 12-18 26-18 44v14l42 196h-270c-46 0-86 38-86 84l2 4h-2v82c0 12 2 22 6 32l130 300c12 30 42 52 78 52h384z" />
<glyph unicode="&#xe91e;" glyph-name="thumbs-up" d="M982 598l-2-4h2v-82c0-12-2-22-6-32l-130-300c-12-30-42-52-78-52h-384c-46 0-86 40-86 86v426c0 24 10 44 26 60l280 282 46-46c12-12 18-26 18-44v-14l-42-196h270c46 0 86-38 86-84zM42 128v512h172v-512h-172z" />
<glyph unicode="&#xe91f;" glyph-name="mood_bad" d="M512 426c100 0 184-60 218-148h-436c34 88 118 148 218 148zM362 554c-36 0-64 28-64 64s28 64 64 64 64-28 64-64-28-64-64-64zM662 554c-36 0-64 28-64 64s28 64 64 64 64-28 64-64-28-64-64-64zM512 170c188 0 342 154 342 342s-154 342-342 342-342-154-342-342 154-342 342-342zM512 938c236 0 426-190 426-426s-190-426-426-426-426 190-426 426 190 426 426 426z" />
<glyph unicode="&#xe920;" glyph-name="sentiment_dissatisfied" d="M512 426c100 0 184-60 218-148h-70c-30 50-84 84-148 84s-118-34-148-84h-70c34 88 118 148 218 148zM512 170c188 0 342 154 342 342s-154 342-342 342-342-154-342-342 154-342 342-342zM512 938c236 0 426-190 426-426s-190-426-426-426-426 190-426 426 190 426 426 426zM298 618c0 36 28 64 64 64s64-28 64-64-28-64-64-64-64 28-64 64zM598 618c0 36 28 64 64 64s64-28 64-64-28-64-64-64-64 28-64 64z" />
<glyph unicode="&#xe921;" glyph-name="sentiment_neutral" d="M512 170c188 0 342 154 342 342s-154 342-342 342-342-154-342-342 154-342 342-342zM512 938c236 0 426-190 426-426s-190-426-426-426-426 190-426 426 190 426 426 426zM298 618c0 36 28 64 64 64s64-28 64-64-28-64-64-64-64 28-64 64zM598 618c0 36 28 64 64 64s64-28 64-64-28-64-64-64-64 28-64 64zM384 426h256v-64h-256v64z" />
<glyph unicode="&#xe922;" glyph-name="sentiment_satisfied" d="M512 342c64 0 118 34 148 84h70c-34-88-118-148-218-148s-184 60-218 148h70c30-50 84-84 148-84zM512 170c188 0 342 154 342 342s-154 342-342 342-342-154-342-342 154-342 342-342zM512 938c236 0 426-190 426-426s-190-426-426-426-426 190-426 426 190 426 426 426zM298 618c0 36 28 64 64 64s64-28 64-64-28-64-64-64-64 28-64 64zM598 618c0 36 28 64 64 64s64-28 64-64-28-64-64-64-64 28-64 64z" />
<glyph unicode="&#xe923;" glyph-name="tag_faces" d="M512 278c-100 0-184 60-218 148h436c-34-88-118-148-218-148zM362 554c-36 0-64 28-64 64s28 64 64 64 64-28 64-64-28-64-64-64zM662 554c-36 0-64 28-64 64s28 64 64 64 64-28 64-64-28-64-64-64zM512 170c188 0 342 154 342 342s-154 342-342 342-342-154-342-342 154-342 342-342zM512 938c236 0 426-190 426-426s-190-426-426-426-426 190-426 426 190 426 426 426z" />
<glyph unicode="&#xe924;" glyph-name="media-backward" d="M490 512l364 256v-512zM470 256l-364 256 364 256v-512z" />
<glyph unicode="&#xe925;" glyph-name="media-forward" d="M554 768l364-256-364-256v512zM170 256v512l364-256z" />
<glyph unicode="&#xe926;" glyph-name="media-play" d="M342 810l468-298-468-298v596z" />
<glyph unicode="&#xe927;" glyph-name="media-pause" d="M598 810h170v-596h-170v596zM256 214v596h170v-596h-170z" />
<glyph unicode="&#xe928;" glyph-name="media-stop" d="M256 768h512v-512h-512v512z" />
<glyph unicode="&#xe929;" glyph-name="volume" d="M127.336 640h172l212 214v-684l-212 214h-172v256z" />
<glyph unicode="&#xe92a;" glyph-name="volume-down" d="M128.668 640h170l214 214v-684l-214 214h-170v256zM704.668 512c0-76-44-140-108-172v344c64-32 108-96 108-172z" />
<glyph unicode="&#xe92b;" glyph-name="volume-up" d="M598 886c172-38 298-192 298-374s-126-336-298-374v88c124 36 212 150 212 286s-88 250-212 286v88zM704 512c0-76-42-140-106-172v344c64-32 106-96 106-172zM128 640h170l214 214v-684l-214 214h-170v256z" />
<glyph unicode="&#xe92c;" glyph-name="volume-mute" d="M512 854v-180l-90 90zM182 896l714-714-54-54-88 88c-46-36-98-64-156-78v88c36 10 68 28 96 50l-182 182v-288l-214 214h-170v256h202l-202 202zM810 512c0 136-88 250-212 286v88c172-38 298-192 298-374 0-64-16-126-44-178l-64 66c14 34 22 72 22 112zM704 512c0-10 0-18-2-26l-104 104v94c64-32 106-96 106-172z" />
<glyph unicode="&#xe92d;" glyph-name="fullscreen" d="M598 810h212v-212h-84v128h-128v84zM726 298v128h84v-212h-212v84h128zM214 598v212h212v-84h-128v-128h-84zM298 426v-128h128v-84h-212v212h84z" />
<glyph unicode="&#xe92e;" glyph-name="fullscreen-exit" d="M682 682h128v-84h-212v212h84v-128zM598 214v212h212v-84h-128v-128h-84zM342 682v128h84v-212h-212v84h128zM214 342v84h212v-212h-84v128h-128z" />
<glyph unicode="&#xe92f;" glyph-name="caption" d="M768 554v44c0 24-18 42-42 42h-128c-24 0-44-18-44-42v-172c0-24 20-42 44-42h128c24 0 42 18 42 42v44h-64v-22h-86v128h86v-22h64zM470 554v44c0 24-20 42-44 42h-128c-24 0-42-18-42-42v-172c0-24 18-42 42-42h128c24 0 44 18 44 42v44h-64v-22h-86v128h86v-22h64zM810 854c46 0 86-40 86-86v-512c0-46-40-86-86-86h-596c-48 0-86 40-86 86v512c0 46 38 86 86 86h596z" />
<glyph unicode="&#xe930;" glyph-name="media-film" d="M768 640v86h-86v-86h86zM768 470v84h-86v-84h86zM768 298v86h-86v-86h86zM342 640v86h-86v-86h86zM342 470v84h-86v-84h86zM342 298v86h-86v-86h86zM768 896h86v-768h-86v86h-86v-86h-340v86h-86v-86h-86v768h86v-86h86v86h340v-86h86v86z" />
<glyph unicode="&#xe931;" glyph-name="media-camera" d="M726 576l170 170v-468l-170 170v-150c0-24-20-42-44-42h-512c-24 0-42 18-42 42v428c0 24 18 42 42 42h512c24 0 44-18 44-42v-150z" />
<glyph unicode="&#xe932;" glyph-name="media-image" d="M362 448l-148-192h596l-192 256-148-192zM896 214c0-46-40-86-86-86h-596c-46 0-86 40-86 86v596c0 46 40 86 86 86h596c46 0 86-40 86-86v-596z" />
<glyph unicode="&#xe933;" glyph-name="check" d="M384 332l452 454 60-60-512-512-238 238 58 60z" />
<glyph unicode="&#xe934;" glyph-name="magnify" d="M406 426c106 0 192 86 192 192s-86 192-192 192-192-86-192-192 86-192 192-192zM662 426l212-212-64-64-212 212v34l-12 12c-48-42-112-66-180-66-154 0-278 122-278 276s124 278 278 278 276-124 276-278c0-68-24-132-66-180l12-12h34z" />
<glyph unicode="&#xe935;" glyph-name="zoom-in" d="M512 598h-86v-86h-42v86h-86v42h86v86h42v-86h86v-42zM406 426c106 0 192 86 192 192s-86 192-192 192-192-86-192-192 86-192 192-192zM662 426l212-212-64-64-212 212v34l-12 12c-48-42-112-66-180-66-154 0-278 122-278 276s124 278 278 278 276-124 276-278c0-68-24-132-66-180l12-12h34z" />
<glyph unicode="&#xe936;" glyph-name="zoom-out" d="M298 640h214v-42h-214v42zM406 426c106 0 192 86 192 192s-86 192-192 192-192-86-192-192 86-192 192-192zM662 426l212-212-64-64-212 212v34l-12 12c-48-42-112-66-180-66-154 0-278 122-278 276s124 278 278 278 276-124 276-278c0-68-24-132-66-180l12-12h34z" />
<glyph unicode="&#xe937;" glyph-name="plus" d="M810 470h-256v-256h-84v256h-256v84h256v256h84v-256h256v-84z" />
<glyph unicode="&#xe938;" glyph-name="minus" d="M810 470h-596v84h596v-84z" />
<glyph unicode="&#xe939;" glyph-name="flip" d="M512 256v128l170-170-170-172v128c-188 0-342 154-342 342 0 66 20 130 54 182l62-62c-20-36-30-76-30-120 0-142 114-256 256-256zM512 854c188 0 342-154 342-342 0-66-20-130-54-182l-62 62c20 36 30 76 30 120 0 142-114 256-256 256v-128l-170 170 170 172v-128z" />
<glyph unicode="&#xe93a;" glyph-name="drag" d="M598 384v-128h128l-214-214-214 214h128v128h172zM982 512l-214-214v128h-128v172h128v128zM384 598v-172h-128v-128l-214 214 214 214v-128h128zM426 640v128h-128l214 214 214-214h-128v-128h-172z" />
<glyph unicode="&#xe93b;" glyph-name="sort" d="M512 248l136 136 60-60-196-196-196 196 60 60zM512 776l-136-136-60 60 196 196 196-196-60-60z" />
<glyph unicode="&#xe93c;" glyph-name="configure" d="M968 214c18-12 18-42-4-60l-98-98c-18-18-42-18-60 0l-388 388c-98-38-212-18-294 64-86 86-108 214-56 316l188-184 128 128-184 184c102 46 230 30 316-56 82-82 102-196 64-294z" />
<glyph unicode="&#xe93d;" glyph-name="settings" d="M512 362c82 0 150 68 150 150s-68 150-150 150-150-68-150-150 68-150 150-150zM830 470l90-70c8-6 10-18 4-28l-86-148c-6-10-16-12-26-8l-106 42c-22-16-46-32-72-42l-16-112c-2-10-10-18-20-18h-172c-10 0-18 8-20 18l-16 112c-26 10-50 24-72 42l-106-42c-10-4-20-2-26 8l-86 148c-6 10-4 22 4 28l90 70c-2 14-2 28-2 42s0 28 2 42l-90 70c-8 6-10 18-4 28l86 148c6 10 16 12 26 8l106-42c22 16 46 32 72 42l16 112c2 10 10 18 20 18h172c10 0 18-8 20-18l16-112c26-10 50-24 72-42l106 42c10 4 20 2 26-8l86-148c6-10 4-22-4-28l-90-70c2-14 2-28 2-42s0-28-2-42z" />
<glyph unicode="&#xe93e;" glyph-name="flag" d="M614 768h240v-426h-300l-16 84h-240v-298h-84v726h384z" />
<glyph unicode="&#xe93f;" glyph-name="world" d="M764 282c56 60 90 142 90 230 0 142-88 266-214 316v-18c0-46-40-84-86-84h-84v-86c0-24-20-42-44-42h-84v-86h256c24 0 42-18 42-42v-128h42c38 0 70-26 82-60zM470 174v82c-46 0-86 40-86 86v42l-204 204c-6-24-10-50-10-76 0-174 132-318 300-338zM512 938c236 0 426-190 426-426s-190-426-426-426-426 190-426 426 190 426 426 426z" />
<glyph unicode="&#xe940;" glyph-name="bookmark" d="M726 896c46 0 84-40 84-86v-682l-298 128-298-128v682c0 46 38 86 84 86h428z" />
<glyph unicode="&#xe941;" glyph-name="mail" d="M512 554l342 214h-684zM854 256v426l-342-212-342 212v-426h684zM854 854c46 0 84-40 84-86v-512c0-46-38-86-84-86h-684c-46 0-84 40-84 86v512c0 46 38 86 84 86h684z" />
<glyph unicode="&#xe942;" glyph-name="message" d="M854 938c46 0 84-38 84-84v-512c0-46-38-86-84-86h-598l-170-170v768c0 46 38 84 84 84h684z" />
<glyph unicode="&#xe943;" glyph-name="lightbulb" d="M634 466c58 40 92 104 92 174 0 118-96 214-214 214s-214-96-214-214c0-70 34-134 92-174l36-26v-98h172v98zM512 938c164 0 298-134 298-298 0-102-50-190-128-244v-98c0-24-18-42-42-42h-256c-24 0-42 18-42 42v98c-78 54-128 142-128 244 0 164 134 298 298 298zM384 128v42h256v-42c0-24-18-42-42-42h-172c-24 0-42 18-42 42z" />
<glyph unicode="&#xe944;" glyph-name="gift" d="M888.724 511.996v-301.508c0-41.455-33.92-75.375-75.375-75.375h-603.024c-41.455 0-75.375 33.92-75.375 75.375v301.508c-20.732 0-37.692 16.96-37.692 37.692v113.067c0 41.455 33.92 75.375 75.375 75.375h119.471c-4.143 11.686-6.404 24.495-6.404 37.692 0 62.566 50.5 113.067 113.067 113.067 37.692 0 70.852-18.841 91.584-46.737v0.38l21.483-29.017 21.483 29.017v-0.38c20.732 27.887 53.892 46.737 91.584 46.737 62.566 0 113.067-50.5 113.067-113.067 0-13.188-2.261-26.005-6.404-37.692h119.471c41.455 0 75.375-33.92 75.375-75.375v-113.067c0-20.732-16.96-37.692-37.692-37.692zM210.324 210.488h263.825v301.508h-263.825v-301.508zM813.341 210.488v301.508h-263.825v-301.508h263.825zM398.765 813.506c-20.732 0-37.692-16.96-37.692-37.692s16.96-37.692 37.692-37.692 37.692 16.96 37.692 37.692-16.96 37.692-37.692 37.692zM624.898 813.506c-20.732 0-37.692-16.96-37.692-37.692s16.96-37.692 37.692-37.692 37.692 16.96 37.692 37.692-16.96 37.692-37.692 37.692zM172.632 662.755v-75.375h301.508v75.375h-301.508zM549.524 662.755v-75.375h301.508v75.375h-301.508z" />
<glyph unicode="&#xe945;" glyph-name="glass" d="M318 726h388l76 84h-540zM896 810l-342-384v-212h214v-86h-512v86h214v212l-342 384v86h768v-86z" />
<glyph unicode="&#xe946;" glyph-name="book" d="M256 854v-342l106 64 108-64v342h-214zM768 938c46 0 86-38 86-84v-684c0-46-40-84-86-84h-512c-46 0-86 38-86 84v684c0 46 40 84 86 84h512z" />
<glyph unicode="&#xe947;" glyph-name="clipboard" d="M810 170v684h-84v-128h-428v128h-84v-684h596zM512 938c-24 0-42-18-42-42s18-42 42-42 42 18 42 42-18 42-42 42zM810 938c46 0 86-38 86-84v-684c0-46-40-84-86-84h-596c-46 0-86 38-86 84v684c0 46 40 84 86 84h178c18 50 64 86 120 86s102-36 120-86h178z" />
<glyph unicode="&#xe948;" glyph-name="user" d="M512 426c114 0 342-56 342-170v-86h-684v86c0 114 228 170 342 170zM512 512c-94 0-170 76-170 170s76 172 170 172 170-78 170-172-76-170-170-170z" />
<glyph unicode="&#xe949;" glyph-name="file-pdf" horiz-adv-x="878" d="M772.189 757.713q13.332-13.332 22.857-36.19t9.525-41.906v-548.57q0-19.049-13.332-32.381t-32.381-13.332h-640q-19.049 0-32.381 13.332t-13.332 32.381v761.906q0 19.049 13.332 32.381t32.381 13.332h426.668q19.049 0 41.906-9.525t36.19-22.857zM560.763 873.906v-179.049h179.049q-4.762 13.81-10.475 19.525l-149.049 149.049q-5.713 5.713-19.525 10.475zM743.619 146.287v487.619h-198.094q-19.049 0-32.381 13.332t-13.332 32.381v198.094h-365.713v-731.429h609.525zM498.857 428.668q15.713-12.381 40-26.668 28.094 3.332 55.713 3.332 70 0 84.287-23.332 7.619-10.475 0.951-24.762 0-0.475-0.475-0.951l-0.951-0.951v-0.475q-2.857-18.094-33.81-18.094-22.857 0-54.762 9.525t-61.906 25.238q-105.238-11.43-186.668-39.525-72.857-124.762-115.238-124.762-7.143 0-13.332 3.332l-11.43 5.713q-0.475 0.475-2.857 2.381-4.762 4.762-2.857 17.143 4.287 19.049 26.668 43.57t62.857 45.951q6.668 4.287 10.951-2.857 0.951-0.951 0.951-1.906 24.762 40.475 50.951 93.81 32.381 64.762 49.525 124.762-11.43 39.049-14.525 75.951t3.094 60.713q5.238 19.049 20 19.049h10.475q10.951 0 16.668-7.143 8.57-10 4.287-32.381-0.951-2.857-1.906-3.81 0.475-1.43 0.475-3.81v-14.287q-0.951-58.57-6.668-91.43 26.19-78.094 69.525-113.332zM224.57 232.951q24.762 11.43 65.238 75.238-24.287-19.049-41.668-40t-23.57-35.238zM414.095 671.049q-7.143-20-0.951-62.857 0.475 3.332 3.332 20.951 0 1.43 3.332 20.475 0.475 1.906 1.906 3.81-0.475 0.475-0.475 0.951t-0.238 0.713-0.238 0.713q-0.475 10.475-6.19 17.143 0-0.475-0.475-0.951v-0.951zM355.048 356.287q64.287 25.713 135.238 38.57-0.951 0.475-6.19 4.525t-7.619 6.43q-36.19 31.906-60.475 83.81-12.857-40.951-39.525-93.81-14.287-26.668-21.43-39.525zM662.668 363.906q-11.43 11.43-66.668 11.43 36.19-13.332 59.049-13.332 6.668 0 8.57 0.475 0 0.475-0.951 1.43z" />
<glyph unicode="&#xe94a;" glyph-name="file-word" horiz-adv-x="878" d="M772.189 757.713q13.332-13.332 22.857-36.19t9.525-41.906v-548.57q0-19.049-13.332-32.381t-32.381-13.332h-640q-19.049 0-32.381 13.332t-13.332 32.381v761.906q0 19.049 13.332 32.381t32.381 13.332h426.668q19.049 0 41.906-9.525t36.19-22.857zM560.763 873.906v-179.049h179.049q-4.762 13.81-10.475 19.525l-149.049 149.049q-5.713 5.713-19.525 10.475zM743.619 146.287v487.619h-198.094q-19.049 0-32.381 13.332t-13.332 32.381v198.094h-365.713v-731.429h609.525zM184.095 572.951v-50.951h33.332l78.094-314.762h75.713l60.951 230.951q3.332 9.525 4.762 21.906 0.951 7.619 0.951 11.43h1.906l1.43-11.43q0.475-1.43 1.668-9.525t2.619-12.381l60.951-230.951h75.713l78.094 314.762h33.332v50.951h-142.857v-50.951h42.857l-47.143-208.57q-2.381-9.525-3.332-21.906l-0.951-10h-1.906l-1.43 10q-0.475 2.381-1.906 10t-2.381 11.906l-68.57 259.525h-54.287l-68.57-259.525q-0.951-4.287-2.143-11.668t-1.668-10.238l-1.906-10h-1.906l-0.951 10q-0.951 12.381-3.332 21.906l-47.143 208.57h42.857v50.951h-142.857z" />
<glyph unicode="&#xe94b;" glyph-name="file-excel" horiz-adv-x="878" d="M772.189 757.713q13.332-13.332 22.857-36.19t9.525-41.906v-548.57q0-19.049-13.332-32.381t-32.381-13.332h-640q-19.049 0-32.381 13.332t-13.332 32.381v761.906q0 19.049 13.332 32.381t32.381 13.332h426.668q19.049 0 41.906-9.525t36.19-22.857zM560.763 873.906v-179.049h179.049q-4.762 13.81-10.475 19.525l-149.049 149.049q-5.713 5.713-19.525 10.475zM743.619 146.287v487.619h-198.094q-19.049 0-32.381 13.332t-13.332 32.381v198.094h-365.713v-731.429h609.525zM277.428 257.713v-50.475h133.81v50.475h-35.713l49.049 76.668q2.381 3.332 4.762 7.857t3.57 6.43 1.668 1.906h0.951q0.475-1.906 2.381-4.762 0.951-1.906 2.143-3.57t2.857-3.81 3.094-4.049l50.951-76.668h-36.19v-50.475h138.57v50.475h-32.381l-91.43 130 92.857 134.287h31.906v50.951h-132.857v-50.951h35.238l-49.049-75.713q-1.906-3.332-4.762-7.857t-4.287-6.43l-0.951-1.43h-0.951q-0.475 1.906-2.381 4.762-2.857 5.238-8.094 10.951l-50.475 75.713h36.19v50.951h-138.094v-50.951h32.381l90-129.525-92.381-134.762h-32.381z" />
<glyph unicode="&#xe94c;" glyph-name="file-powerpoint" horiz-adv-x="878" d="M772.189 757.713q13.332-13.332 22.857-36.19t9.525-41.906v-548.57q0-19.049-13.332-32.381t-32.381-13.332h-640q-19.049 0-32.381 13.332t-13.332 32.381v761.906q0 19.049 13.332 32.381t32.381 13.332h426.668q19.049 0 41.906-9.525t36.19-22.857zM560.763 873.906v-179.049h179.049q-4.762 13.81-10.475 19.525l-149.049 149.049q-5.713 5.713-19.525 10.475zM743.619 146.287v487.619h-198.094q-19.049 0-32.381 13.332t-13.332 32.381v198.094h-365.713v-731.429h609.525zM271.238 257.713v-50.475h155.713v50.475h-44.287v79.525h65.238q36.19 0 56.19 7.143 31.906 10.951 50.713 41.43t18.81 69.525q0 38.57-17.619 67.143t-47.619 41.43q-22.857 9.049-61.906 9.049h-175.238v-50.951h43.81v-264.287h-43.81zM439.333 391.049h-56.668v127.619h57.143q24.762 0 39.525-8.57 26.668-15.713 26.668-54.762 0-42.381-29.525-57.143-14.762-7.143-37.143-7.143z" />
<glyph unicode="&#xe94d;" glyph-name="file-image" horiz-adv-x="878" d="M772.189 757.713q13.332-13.332 22.857-36.19t9.525-41.906v-548.57q0-19.049-13.332-32.381t-32.381-13.332h-640q-19.049 0-32.381 13.332t-13.332 32.381v761.906q0 19.049 13.332 32.381t32.381 13.332h426.668q19.049 0 41.906-9.525t36.19-22.857zM560.763 873.906v-179.049h179.049q-4.762 13.81-10.475 19.525l-149.049 149.049q-5.713 5.713-19.525 10.475zM743.619 146.287v487.619h-198.094q-19.049 0-32.381 13.332t-13.332 32.381v198.094h-365.713v-731.429h609.525zM682.668 359.619v-152.381h-487.619v91.43l91.43 91.43 60.951-60.951 182.857 182.857zM286.476 451.049q-38.094 0-64.762 26.668t-26.668 64.762 26.668 64.762 64.762 26.668 64.762-26.668 26.668-64.762-26.668-64.762-64.762-26.668z" />
<glyph unicode="&#xe94e;" glyph-name="file-archive" horiz-adv-x="878" d="M377.906 755.81v60.951h-60.951v-60.951h60.951zM438.857 694.857v60.951h-60.951v-60.951h60.951zM377.906 633.906v60.951h-60.951v-60.951h60.951zM438.857 572.951v60.951h-60.951v-60.951h60.951zM772.189 757.713q13.332-13.332 22.857-36.19t9.525-41.906v-548.57q0-19.049-13.332-32.381t-32.381-13.332h-640q-19.049 0-32.381 13.332t-13.332 32.381v761.906q0 19.049 13.332 32.381t32.381 13.332h426.668q19.049 0 41.906-9.525t36.19-22.857zM560.763 873.906v-179.049h179.049q-4.762 13.81-10.475 19.525l-149.049 149.049q-5.713 5.713-19.525 10.475zM743.619 146.287v487.619h-198.094q-19.049 0-32.381 13.332t-13.332 32.381v198.094h-60.951v-60.951h-60.951v60.951h-243.81v-731.429h609.525zM445.048 489.619l50.951-166.19q3.81-12.857 3.81-24.762 0-39.525-34.525-65.475t-87.381-25.951-87.381 25.951-34.525 65.475q0 11.906 3.81 24.762 10 30 57.143 188.57v60.951h60.951v-60.951h37.619q10.475 0 18.57-6.19t10.951-16.19zM377.906 268.19q25.238 0 43.094 9.049t17.857 21.43-17.857 21.43-43.094 9.049-43.094-9.049-17.857-21.43 17.857-21.43 43.094-9.049z" />
<glyph unicode="&#xe94f;" glyph-name="file-audio" horiz-adv-x="878" d="M772.189 757.713q13.332-13.332 22.857-36.19t9.525-41.906v-548.57q0-19.049-13.332-32.381t-32.381-13.332h-640q-19.049 0-32.381 13.332t-13.332 32.381v761.906q0 19.049 13.332 32.381t32.381 13.332h426.668q19.049 0 41.906-9.525t36.19-22.857zM560.763 873.906v-179.049h179.049q-4.762 13.81-10.475 19.525l-149.049 149.049q-5.713 5.713-19.525 10.475zM743.619 146.287v487.619h-198.094q-19.049 0-32.381 13.332t-13.332 32.381v198.094h-365.713v-731.429h609.525zM368.382 533.906q9.525-3.81 9.525-14.287v-259.049q0-10.475-9.525-14.287-3.81-0.951-5.713-0.951-5.713 0-10.951 4.287l-79.049 79.525h-62.381q-6.668 0-10.951 4.287t-4.287 10.951v91.43q0 6.668 4.287 10.951t10.951 4.287h62.381l79.049 79.525q7.619 7.143 16.668 3.332zM566.951 205.81q14.762 0 23.81 11.43 61.43 75.713 61.43 172.857t-61.43 172.857q-7.619 10-20.475 11.43t-22.381-6.668q-10-8.094-11.19-20.713t6.906-22.619q47.619-58.57 47.619-134.287t-47.619-134.287q-8.094-10-6.906-22.619t11.19-20.238q8.57-7.143 19.049-7.143zM466.476 276.287q12.857 0 22.381 9.525 41.43 44.287 41.43 104.287t-41.43 104.287q-8.57 9.049-21.43 9.525t-21.906-8.094-9.525-21.19 8.57-22.143q24.762-27.143 24.762-62.381t-24.762-62.381q-9.049-9.525-8.57-22.143t9.525-21.19q9.525-8.094 20.951-8.094z" />
<glyph unicode="&#xe950;" glyph-name="file-video" horiz-adv-x="878" d="M772.189 757.713q13.332-13.332 22.857-36.19t9.525-41.906v-548.57q0-19.049-13.332-32.381t-32.381-13.332h-640q-19.049 0-32.381 13.332t-13.332 32.381v761.906q0 19.049 13.332 32.381t32.381 13.332h426.668q19.049 0 41.906-9.525t36.19-22.857zM560.763 873.906v-179.049h179.049q-4.762 13.81-10.475 19.525l-149.049 149.049q-5.713 5.713-19.525 10.475zM743.619 146.287v487.619h-198.094q-19.049 0-32.381 13.332t-13.332 32.381v198.094h-365.713v-731.429h609.525zM438.857 572.951q24.762 0 42.857-18.094t18.094-42.857v-182.857q0-24.762-18.094-42.857t-42.857-18.094h-182.857q-24.762 0-42.857 18.094t-18.094 42.857v182.857q0 24.762 18.094 42.857t42.857 18.094h182.857zM673.144 572q9.525-3.81 9.525-14.287v-274.287q0-10.475-9.525-14.287-3.81-0.951-5.713-0.951-6.668 0-10.951 4.287l-126.19 126.668v42.857l126.19 126.668q4.287 4.287 10.951 4.287 1.906 0 5.713-0.951z" />
<glyph unicode="&#xe951;" glyph-name="file-code" horiz-adv-x="878" d="M772.189 757.713q13.332-13.332 22.857-36.19t9.525-41.906v-548.57q0-19.049-13.332-32.381t-32.381-13.332h-640q-19.049 0-32.381 13.332t-13.332 32.381v761.906q0 19.049 13.332 32.381t32.381 13.332h426.668q19.049 0 41.906-9.525t36.19-22.857zM560.763 873.906v-179.049h179.049q-4.762 13.81-10.475 19.525l-149.049 149.049q-5.713 5.713-19.525 10.475zM743.619 146.287v487.619h-198.094q-19.049 0-32.381 13.332t-13.332 32.381v198.094h-365.713v-731.429h609.525zM301.714 572.951q3.81 5.238 10 5.951t11.43-3.094l24.287-18.094q5.238-3.81 5.951-10t-3.094-11.43l-86.668-115.713 86.668-115.713q3.81-5.238 3.094-11.43t-5.951-10l-24.287-18.094q-5.238-3.81-11.43-3.094t-10 5.951l-107.619 143.332q-6.668 9.049 0 18.094zM683.619 429.619q6.668-9.049 0-18.094l-107.619-143.332q-3.81-5.238-10-5.951t-11.43 3.094l-24.287 18.094q-5.238 3.81-5.951 10t3.094 11.43l86.668 115.713-86.668 115.713q-3.81 5.238-3.094 11.43t5.951 10l24.287 18.094q5.238 3.81 11.43 3.094t10-5.951zM388.382 210.094q-6.19 0.951-9.762 6.19t-2.619 11.43l65.713 395.713q0.951 6.19 6.19 9.762t11.43 2.619l30-4.762q6.19-0.951 9.762-6.19t2.619-11.43l-65.713-395.713q-0.951-6.19-6.19-9.762t-11.43-2.619z" />
<glyph unicode="&#xe952;" glyph-name="copyright" horiz-adv-x="878" d="M646.532 415.23v-59.258q0-27.182-19.843-48.385t-51.103-32.89-64.151-17.668-63.879-5.98q-111.449 0-186.2 75.568t-74.752 188.103q0 110.361 73.936 184.297t184.297 73.936q18.485 0 41.046-2.446t50.56-9.786 50.288-18.485 37.512-30.717 15.222-44.036v-59.258q0-8.699-8.699-8.699h-64.151q-8.699 0-8.699 8.699v38.056q0 23.377-35.61 36.696t-74.752 13.319q-76.111 0-124.224-49.744t-48.113-129.117q0-82.092 49.744-135.64t126.943-53.55q36.968 0 75.024 13.047t38.056 35.881v38.056q0 3.806 2.446 6.252t5.708 2.446h64.694q3.262 0 5.98-2.446t2.718-6.252zM438.857 859.936q-70.675 0-135.097-27.726t-110.904-74.208-74.208-110.904-27.726-135.097 27.726-135.097 74.208-110.904 110.904-74.208 135.097-27.726 135.097 27.726 110.904 74.208 74.208 110.904 27.726 135.097-27.726 135.097-74.208 110.904-110.904 74.208-135.097 27.726zM856.381 512q0-113.623-55.996-209.578t-151.95-151.95-209.578-55.996-209.578 55.996-151.95 151.95-55.996 209.578 55.996 209.578 151.95 151.95 209.578 55.996 209.578-55.996 151.95-151.95 55.996-209.578z" />
<glyph unicode="&#xe953;" glyph-name="at" horiz-adv-x="878" d="M549.762 577.78q0 58.714-29.085 91.877t-80.189 33.163q-34.25 0-67.413-16.582t-59.801-45.939-43.221-74.48-16.582-97.857q0-60.889 29.085-94.051t81.819-33.163q52.19 0 95.682 36.153t66.597 90.246 23.105 110.633zM856.381 511.998q0-60.346-20.115-107.099t-53.55-73.393-71.49-40.502-78.829-14.95q-3.262 0-8.426-0.272t-8.971-0.272q-51.647 0-77.199 28.814-15.222 17.94-17.94 45.123-28.27-35.881-71.49-59.801t-94.324-23.921q-87.528 0-135.64 51.918t-48.113 146.514q0 85.353 35.881 157.658t97.314 114.439 133.738 42.133q47.297 0 84.265-19.3t57.627-54.093l1.087 10.329 5.98 30.444q0.543 3.262 2.99 6.524t5.165 3.262h64.151q2.718 0 7.068-5.98 2.718-2.718 1.631-8.699l-65.238-333.801q-2.718-13.047-2.718-26.096 0-21.203 6.796-28.27t24.193-7.068q15.222 0.543 30.988 2.99t39.686 13.047 41.861 27.182 30.988 48.657 13.047 74.48q0 158.746-94.596 253.342t-253.342 94.596q-70.675 0-135.097-27.726t-110.904-74.208-74.208-110.904-27.726-135.097 27.726-135.097 74.208-110.904 110.904-74.208 135.097-27.726q123.953 0 220.179 78.286 5.98 4.893 13.047 4.349t11.417-6.524l22.29-26.639q4.349-6.524 3.806-13.047-1.087-7.068-6.524-11.96-55.453-45.123-123.681-69.587t-140.533-24.464q-84.81 0-162.008 33.163t-133.194 89.158-89.158 133.194-33.163 162.008 33.163 162.008 89.158 133.194 133.194 89.158 162.008 33.163q187.015 0 302.27-115.254t115.254-302.27z" />
<glyph unicode="&#xe954;" glyph-name="trademark" horiz-adv-x="1021" d="M458.026 706.283v-47.357q0-5.258-3.845-8.901t-9.105-3.643h-120.622v-328.668q0-5.258-3.643-9.105t-8.901-3.845h-54.643q-5.258 0-9.105 3.643t-3.845 9.309v328.668h-120.214q-5.258 0-9.105 3.643t-3.845 8.901v47.357q0 5.666 3.643 9.309t9.309 3.643h320.981q5.258 0 9.105-3.845t3.845-9.105zM878.171 707.498l31.171-388.98q0.401-5.258-3.242-9.714-4.044-4.044-9.309-4.044h-54.243q-4.857 0-8.5 3.441t-4.044 8.298l-18.62 238.002-76.5-172.025q-3.242-7.691-11.742-7.691h-48.571q-8.099 0-11.742 7.691l-76.1 172.837-18.214-238.811q-0.401-4.857-4.044-8.298t-8.5-3.441h-54.643q-5.258 0-9.309 4.044-3.643 4.044-3.643 9.714l31.571 388.98q0.401 4.857 4.044 8.298t8.5 3.441h57.478q8.099 0 11.742-7.691l89.050-210.48q4.044-9.714 8.099-20.643 1.214 2.834 3.845 9.916t4.248 10.727l89.458 210.48q3.643 7.691 11.742 7.691h57.071q5.258 0 8.901-3.441t4.044-8.298z" />
<glyph unicode="&#xe955;" glyph-name="registered" d="M581.525 603.906q0 41.906-28.57 57.619-15.713 8.57-55.713 8.57h-58.57v-133.81h77.143q31.43 0 48.57 17.619t17.143 50zM606.287 468.19l97.619-177.619q3.81-8.094-0.475-14.762-3.81-7.619-12.857-7.619h-72.381q-9.525 0-13.332 8.094l-92.381 173.811h-73.81v-166.668q0-6.668-4.287-10.951t-10.951-4.287h-63.81q-6.668 0-10.951 4.287t-4.287 10.951v457.143q0 6.668 4.287 10.951t10.951 4.287h140q60.951 0 90.475-11.43 40.475-14.762 63.81-51.906t23.332-85.713q0-43.81-20.238-78.81t-55-52.143q2.857-4.762 4.287-7.619zM512 862.475q-71.43 0-136.19-27.857t-111.668-74.762-74.762-111.668-27.857-136.19 27.857-136.19 74.762-111.668 111.668-74.762 136.19-27.857 136.19 27.857 111.668 74.762 74.762 111.668 27.857 136.19-27.857 136.19-74.762 111.668-111.668 74.762-136.19 27.857zM938.668 512q0-86.668-33.81-165.713t-90.951-136.19-136.19-90.951-165.713-33.81-165.713 33.81-136.19 90.951-90.951 136.19-33.81 165.713 33.81 165.713 90.951 136.19 136.19 90.951 165.713 33.81 165.713-33.81 136.19-90.951 90.951-136.19 33.81-165.713z" />
<glyph unicode="&#xe956;" glyph-name="creative-commons" d="M373.43 351.525q72.857 0 122.381 49.525 6.668 8.57 1.43 17.143l-21.43 39.049q-2.857 6.19-11.43 8.094-7.619 0.951-12.857-5.238l-1.906-1.43q-1.906-1.906-5.475-4.762t-8.332-6.19-11.19-6.906-13.57-6.43-15.951-4.525-17.857-1.668q-36.19 0-59.525 23.81t-23.332 60.475q0 36.19 22.857 59.762t58.094 23.57q17.619 0 34.049-6.668t24.049-13.332l7.619-6.668q5.238-5.238 12.381-4.762 7.619 0.951 11.43 6.668l25.238 37.143q6.19 9.525-0.951 18.57-1.43 1.906-5.238 5.713t-14.287 11.19-23.094 13.332-32.143 10.713-40.951 4.762q-70.475 0-117.143-45.951t-46.668-114.525q0-69.525 46.19-115t117.619-45.475zM673.429 351.525q72.857 0 122.381 49.525 6.668 8.57 1.906 17.143l-21.43 39.049q-3.81 6.668-11.906 8.094-7.619 0.951-12.857-5.238l-1.906-1.43q-1.906-1.906-5.475-4.762t-8.332-6.19-11.19-6.906-13.57-6.43-15.951-4.525-17.857-1.668q-36.19 0-59.525 23.81t-23.332 60.475q0 36.19 22.857 59.762t58.094 23.57q17.619 0 34.049-6.668t24.049-13.332l7.619-6.668q5.238-5.238 12.381-4.762 7.619 0.951 11.43 6.668l25.238 37.143q6.19 9.525-0.951 18.57-1.43 1.906-5.238 5.713t-14.287 11.19-23.094 13.332-32.143 10.713-40.951 4.762q-70 0-116.906-45.951t-46.906-114.525q0-69.525 46.19-115t117.619-45.475zM512 862.475q-71.43 0-136.189-27.857t-111.668-74.762-74.762-111.668-27.857-136.189 27.857-136.189 74.762-111.668 111.668-74.762 136.189-27.857 136.189 27.857 111.668 74.762 74.762 111.668 27.857 136.189-27.857 136.189-74.762 111.668-111.668 74.762-136.189 27.857zM512 938.667q86.668 0 165.713-33.81t136.189-90.951 90.951-136.189 33.81-165.713-33.81-165.713-90.951-136.189-136.189-90.951-165.713-33.81-165.713 33.81-136.189 90.951-90.951 136.189-33.81 165.713 33.81 165.713 90.951 136.189 136.189 90.951 165.713 33.81z" />
<glyph unicode="&#xe957;" glyph-name="diamond" horiz-adv-x="1021" d="M150.579 572.981l276.132-294.745-132.969 294.745h-143.161zM510.476 230.812l154.684 342.168h-309.373zM295.071 629.713l90.416 170.199h-116.124l-127.648-170.199h153.354zM594.246 278.234l276.132 294.745h-143.161zM359.338 629.713h302.279l-90.416 170.199h-121.442zM725.886 629.713h153.354l-127.648 170.199h-116.124zM788.377 845.116l170.199-226.931q6.205-7.976 5.766-18.394t-7.534-17.95l-425.498-453.864q-7.976-8.864-20.832-8.864t-20.832 8.864l-425.498 453.864q-7.093 7.534-7.534 17.95t5.766 18.394l170.199 226.931q7.976 11.522 22.603 11.522h510.596q14.627 0 22.603-11.522z" />
</font>
</defs>
</svg>
